ISO-10303-21;
HEADER;
/*Generated by software containing ST-Developer
 * from STEP Tools, Inc. (www.steptools.com) 
 */
/*OPTION: using custom renumber hook */
/*description */
/*implementation_level */
FILE_DESCRIPTION(('STEP AP242 Edition 2','STEP AP242 Edition 2''CAx-IF Rec.Pracs.---Representation and Presentation of Product Manufa
cturing Information (PMI)---4.0---2014-10-13','STEP AP242 Edition 2''CAx-IF Rec.Pracs.---Representation and Presentation of Product Manufa
cturing Information (PMI)---4.0---2014-10-13''CAx-IF Rec.Pracs.---3D Tessellated Geometry---0.4---2014-09-14','STEP AP242 Edition 2''CAx-IF Rec.Pracs.---Representation and Presentation of Product Manufa
cturing Information (PMI)---4.0---2014-10-13''CAx-IF Rec.Pracs.---3D Tessellated Geometry---0.4---2014-09-14''2;1','STEP AP242 Edition 2''CAx-IF Rec.Pracs.---Representation and Presentation of Product Manufa
cturing Information (PMI)---4.0---2014-10-13''CAx-IF Rec.Pracs.---3D Tessellated Geometry---0.4---2014-09-14''2;1''CAx-IF Rec.Pracs.---User Defined Attributes---1.5---2016-08-15'),'2;1');
/*name */
/*time_stamp */
/*author */
/*organization */
/*preprocessor_version */
/*originating_system */
/*authorisation */
FILE_NAME('/vol/tmp/translate-13560453279914835996/Bottom Plate.step','2026-03-07T20:58:14',(''),(''),'ST-DEVELOPER v20','ONSHAPE BY PTC INC, 1.211','  ');
FILE_SCHEMA(('AP242_MANAGED_MODEL_BASED_3D_ENGINEERING_MIM_LF { 1 0 10303 442 3 1 4 }'));
ENDSEC;
DATA;
#10=SHAPE_REPRESENTATION_RELATIONSHIP('','',#643,#11);
#11=ADVANCED_BREP_SHAPE_REPRESENTATION('',(#641),#1041);
#12=LINE('',#891,#72);
#13=LINE('',#894,#73);
#14=LINE('',#896,#74);
#15=LINE('',#898,#75);
#16=LINE('',#899,#76);
#17=LINE('',#902,#77);
#18=LINE('',#904,#78);
#19=LINE('',#906,#79);
#20=LINE('',#907,#80);
#21=LINE('',#910,#81);
#22=LINE('',#912,#82);
#23=LINE('',#914,#83);
#24=LINE('',#915,#84);
#25=LINE('',#918,#85);
#26=LINE('',#920,#86);
#27=LINE('',#922,#87);
#28=LINE('',#923,#88);
#29=LINE('',#926,#89);
#30=LINE('',#928,#90);
#31=LINE('',#930,#91);
#32=LINE('',#932,#92);
#33=LINE('',#935,#93);
#34=LINE('',#936,#94);
#35=LINE('',#938,#95);
#36=LINE('',#940,#96);
#37=LINE('',#942,#97);
#38=LINE('',#944,#98);
#39=LINE('',#946,#99);
#40=LINE('',#957,#100);
#41=LINE('',#959,#101);
#42=LINE('',#961,#102);
#43=LINE('',#963,#103);
#44=LINE('',#965,#104);
#45=LINE('',#967,#105);
#46=LINE('',#969,#106);
#47=LINE('',#971,#107);
#48=LINE('',#974,#108);
#49=LINE('',#976,#109);
#50=LINE('',#978,#110);
#51=LINE('',#980,#111);
#52=LINE('',#982,#112);
#53=LINE('',#984,#113);
#54=LINE('',#986,#114);
#55=LINE('',#988,#115);
#56=LINE('',#991,#116);
#57=LINE('',#993,#117);
#58=LINE('',#995,#118);
#59=LINE('',#997,#119);
#60=LINE('',#999,#120);
#61=LINE('',#1001,#121);
#62=LINE('',#1003,#122);
#63=LINE('',#1005,#123);
#64=LINE('',#1008,#124);
#65=LINE('',#1010,#125);
#66=LINE('',#1012,#126);
#67=LINE('',#1014,#127);
#68=LINE('',#1016,#128);
#69=LINE('',#1018,#129);
#70=LINE('',#1020,#130);
#71=LINE('',#1022,#131);
#72=VECTOR('',#727,1.);
#73=VECTOR('',#728,1.);
#74=VECTOR('',#729,1.);
#75=VECTOR('',#730,1.);
#76=VECTOR('',#731,1.);
#77=VECTOR('',#732,1.);
#78=VECTOR('',#733,1.);
#79=VECTOR('',#734,1.);
#80=VECTOR('',#735,1.);
#81=VECTOR('',#736,1.);
#82=VECTOR('',#737,1.);
#83=VECTOR('',#738,1.);
#84=VECTOR('',#739,1.);
#85=VECTOR('',#740,1.);
#86=VECTOR('',#741,1.);
#87=VECTOR('',#742,1.);
#88=VECTOR('',#743,1.);
#89=VECTOR('',#744,1.);
#90=VECTOR('',#745,1.);
#91=VECTOR('',#746,1.);
#92=VECTOR('',#749,1.);
#93=VECTOR('',#750,1.);
#94=VECTOR('',#751,1.);
#95=VECTOR('',#754,1.);
#96=VECTOR('',#755,1.);
#97=VECTOR('',#758,1.);
#98=VECTOR('',#759,1.);
#99=VECTOR('',#762,1.);
#100=VECTOR('',#775,1.);
#101=VECTOR('',#776,1.);
#102=VECTOR('',#777,1.);
#103=VECTOR('',#780,1.);
#104=VECTOR('',#781,1.);
#105=VECTOR('',#784,1.);
#106=VECTOR('',#785,1.);
#107=VECTOR('',#788,1.);
#108=VECTOR('',#793,1.);
#109=VECTOR('',#794,1.);
#110=VECTOR('',#795,1.);
#111=VECTOR('',#798,1.);
#112=VECTOR('',#799,1.);
#113=VECTOR('',#802,1.);
#114=VECTOR('',#803,1.);
#115=VECTOR('',#806,1.);
#116=VECTOR('',#811,1.);
#117=VECTOR('',#812,1.);
#118=VECTOR('',#813,1.);
#119=VECTOR('',#816,1.);
#120=VECTOR('',#817,1.);
#121=VECTOR('',#820,1.);
#122=VECTOR('',#821,1.);
#123=VECTOR('',#824,1.);
#124=VECTOR('',#829,1.);
#125=VECTOR('',#830,1.);
#126=VECTOR('',#831,1.);
#127=VECTOR('',#834,1.);
#128=VECTOR('',#835,1.);
#129=VECTOR('',#838,1.);
#130=VECTOR('',#839,1.);
#131=VECTOR('',#842,1.);
#132=PLANE('',#657);
#133=PLANE('',#658);
#134=PLANE('',#659);
#135=PLANE('',#660);
#136=PLANE('',#661);
#137=PLANE('',#662);
#138=PLANE('',#667);
#139=PLANE('',#668);
#140=PLANE('',#669);
#141=PLANE('',#670);
#142=PLANE('',#671);
#143=PLANE('',#672);
#144=PLANE('',#673);
#145=PLANE('',#674);
#146=PLANE('',#675);
#147=PLANE('',#676);
#148=PLANE('',#677);
#149=PLANE('',#678);
#150=PLANE('',#679);
#151=PLANE('',#680);
#152=PLANE('',#681);
#153=PLANE('',#682);
#154=PLANE('',#683);
#155=PLANE('',#684);
#156=PLANE('',#685);
#157=PLANE('',#686);
#158=PLANE('',#689);
#159=PLANE('',#692);
#160=PLANE('',#695);
#161=PLANE('',#698);
#162=ORIENTED_EDGE('',*,*,#314,.T.);
#163=ORIENTED_EDGE('',*,*,#315,.F.);
#164=ORIENTED_EDGE('',*,*,#316,.T.);
#165=ORIENTED_EDGE('',*,*,#317,.F.);
#166=ORIENTED_EDGE('',*,*,#318,.T.);
#167=ORIENTED_EDGE('',*,*,#319,.F.);
#168=ORIENTED_EDGE('',*,*,#320,.T.);
#169=ORIENTED_EDGE('',*,*,#321,.F.);
#170=ORIENTED_EDGE('',*,*,#320,.F.);
#171=ORIENTED_EDGE('',*,*,#318,.F.);
#172=ORIENTED_EDGE('',*,*,#316,.F.);
#173=ORIENTED_EDGE('',*,*,#314,.F.);
#174=ORIENTED_EDGE('',*,*,#322,.F.);
#175=ORIENTED_EDGE('',*,*,#323,.T.);
#176=ORIENTED_EDGE('',*,*,#324,.T.);
#177=ORIENTED_EDGE('',*,*,#325,.F.);
#178=ORIENTED_EDGE('',*,*,#326,.F.);
#179=ORIENTED_EDGE('',*,*,#327,.T.);
#180=ORIENTED_EDGE('',*,*,#328,.T.);
#181=ORIENTED_EDGE('',*,*,#329,.F.);
#182=ORIENTED_EDGE('',*,*,#330,.F.);
#183=ORIENTED_EDGE('',*,*,#331,.T.);
#184=ORIENTED_EDGE('',*,*,#332,.T.);
#185=ORIENTED_EDGE('',*,*,#333,.F.);
#186=ORIENTED_EDGE('',*,*,#334,.F.);
#187=ORIENTED_EDGE('',*,*,#335,.T.);
#188=ORIENTED_EDGE('',*,*,#336,.T.);
#189=ORIENTED_EDGE('',*,*,#337,.F.);
#190=ORIENTED_EDGE('',*,*,#338,.F.);
#191=ORIENTED_EDGE('',*,*,#339,.T.);
#192=ORIENTED_EDGE('',*,*,#340,.T.);
#193=ORIENTED_EDGE('',*,*,#341,.F.);
#194=ORIENTED_EDGE('',*,*,#342,.F.);
#195=ORIENTED_EDGE('',*,*,#343,.F.);
#196=ORIENTED_EDGE('',*,*,#322,.T.);
#197=ORIENTED_EDGE('',*,*,#344,.T.);
#198=ORIENTED_EDGE('',*,*,#345,.T.);
#199=ORIENTED_EDGE('',*,*,#346,.F.);
#200=ORIENTED_EDGE('',*,*,#323,.F.);
#201=ORIENTED_EDGE('',*,*,#343,.T.);
#202=ORIENTED_EDGE('',*,*,#347,.T.);
#203=ORIENTED_EDGE('',*,*,#348,.F.);
#204=ORIENTED_EDGE('',*,*,#324,.F.);
#205=ORIENTED_EDGE('',*,*,#346,.T.);
#206=ORIENTED_EDGE('',*,*,#349,.F.);
#207=ORIENTED_EDGE('',*,*,#344,.F.);
#208=ORIENTED_EDGE('',*,*,#325,.T.);
#209=ORIENTED_EDGE('',*,*,#348,.T.);
#210=ORIENTED_EDGE('',*,*,#350,.F.);
#211=ORIENTED_EDGE('',*,*,#351,.F.);
#212=ORIENTED_EDGE('',*,*,#352,.F.);
#213=ORIENTED_EDGE('',*,*,#353,.F.);
#214=ORIENTED_EDGE('',*,*,#342,.T.);
#215=ORIENTED_EDGE('',*,*,#349,.T.);
#216=ORIENTED_EDGE('',*,*,#347,.F.);
#217=ORIENTED_EDGE('',*,*,#345,.F.);
#218=ORIENTED_EDGE('',*,*,#327,.F.);
#219=ORIENTED_EDGE('',*,*,#354,.F.);
#220=ORIENTED_EDGE('',*,*,#355,.T.);
#221=ORIENTED_EDGE('',*,*,#356,.T.);
#222=ORIENTED_EDGE('',*,*,#326,.T.);
#223=ORIENTED_EDGE('',*,*,#357,.F.);
#224=ORIENTED_EDGE('',*,*,#358,.F.);
#225=ORIENTED_EDGE('',*,*,#354,.T.);
#226=ORIENTED_EDGE('',*,*,#329,.T.);
#227=ORIENTED_EDGE('',*,*,#359,.F.);
#228=ORIENTED_EDGE('',*,*,#360,.F.);
#229=ORIENTED_EDGE('',*,*,#357,.T.);
#230=ORIENTED_EDGE('',*,*,#328,.F.);
#231=ORIENTED_EDGE('',*,*,#356,.F.);
#232=ORIENTED_EDGE('',*,*,#361,.T.);
#233=ORIENTED_EDGE('',*,*,#359,.T.);
#234=ORIENTED_EDGE('',*,*,#355,.F.);
#235=ORIENTED_EDGE('',*,*,#358,.T.);
#236=ORIENTED_EDGE('',*,*,#360,.T.);
#237=ORIENTED_EDGE('',*,*,#361,.F.);
#238=ORIENTED_EDGE('',*,*,#331,.F.);
#239=ORIENTED_EDGE('',*,*,#362,.F.);
#240=ORIENTED_EDGE('',*,*,#363,.T.);
#241=ORIENTED_EDGE('',*,*,#364,.T.);
#242=ORIENTED_EDGE('',*,*,#330,.T.);
#243=ORIENTED_EDGE('',*,*,#365,.F.);
#244=ORIENTED_EDGE('',*,*,#366,.F.);
#245=ORIENTED_EDGE('',*,*,#362,.T.);
#246=ORIENTED_EDGE('',*,*,#333,.T.);
#247=ORIENTED_EDGE('',*,*,#367,.F.);
#248=ORIENTED_EDGE('',*,*,#368,.F.);
#249=ORIENTED_EDGE('',*,*,#365,.T.);
#250=ORIENTED_EDGE('',*,*,#332,.F.);
#251=ORIENTED_EDGE('',*,*,#364,.F.);
#252=ORIENTED_EDGE('',*,*,#369,.T.);
#253=ORIENTED_EDGE('',*,*,#367,.T.);
#254=ORIENTED_EDGE('',*,*,#363,.F.);
#255=ORIENTED_EDGE('',*,*,#366,.T.);
#256=ORIENTED_EDGE('',*,*,#368,.T.);
#257=ORIENTED_EDGE('',*,*,#369,.F.);
#258=ORIENTED_EDGE('',*,*,#335,.F.);
#259=ORIENTED_EDGE('',*,*,#370,.F.);
#260=ORIENTED_EDGE('',*,*,#371,.T.);
#261=ORIENTED_EDGE('',*,*,#372,.T.);
#262=ORIENTED_EDGE('',*,*,#334,.T.);
#263=ORIENTED_EDGE('',*,*,#373,.F.);
#264=ORIENTED_EDGE('',*,*,#374,.F.);
#265=ORIENTED_EDGE('',*,*,#370,.T.);
#266=ORIENTED_EDGE('',*,*,#337,.T.);
#267=ORIENTED_EDGE('',*,*,#375,.F.);
#268=ORIENTED_EDGE('',*,*,#376,.F.);
#269=ORIENTED_EDGE('',*,*,#373,.T.);
#270=ORIENTED_EDGE('',*,*,#336,.F.);
#271=ORIENTED_EDGE('',*,*,#372,.F.);
#272=ORIENTED_EDGE('',*,*,#377,.T.);
#273=ORIENTED_EDGE('',*,*,#375,.T.);
#274=ORIENTED_EDGE('',*,*,#371,.F.);
#275=ORIENTED_EDGE('',*,*,#374,.T.);
#276=ORIENTED_EDGE('',*,*,#376,.T.);
#277=ORIENTED_EDGE('',*,*,#377,.F.);
#278=ORIENTED_EDGE('',*,*,#339,.F.);
#279=ORIENTED_EDGE('',*,*,#378,.F.);
#280=ORIENTED_EDGE('',*,*,#379,.T.);
#281=ORIENTED_EDGE('',*,*,#380,.T.);
#282=ORIENTED_EDGE('',*,*,#338,.T.);
#283=ORIENTED_EDGE('',*,*,#381,.F.);
#284=ORIENTED_EDGE('',*,*,#382,.F.);
#285=ORIENTED_EDGE('',*,*,#378,.T.);
#286=ORIENTED_EDGE('',*,*,#341,.T.);
#287=ORIENTED_EDGE('',*,*,#383,.F.);
#288=ORIENTED_EDGE('',*,*,#384,.F.);
#289=ORIENTED_EDGE('',*,*,#381,.T.);
#290=ORIENTED_EDGE('',*,*,#340,.F.);
#291=ORIENTED_EDGE('',*,*,#380,.F.);
#292=ORIENTED_EDGE('',*,*,#385,.T.);
#293=ORIENTED_EDGE('',*,*,#383,.T.);
#294=ORIENTED_EDGE('',*,*,#379,.F.);
#295=ORIENTED_EDGE('',*,*,#382,.T.);
#296=ORIENTED_EDGE('',*,*,#384,.T.);
#297=ORIENTED_EDGE('',*,*,#385,.F.);
#298=ORIENTED_EDGE('',*,*,#386,.F.);
#299=ORIENTED_EDGE('',*,*,#352,.T.);
#300=ORIENTED_EDGE('',*,*,#321,.T.);
#301=ORIENTED_EDGE('',*,*,#386,.T.);
#302=ORIENTED_EDGE('',*,*,#387,.F.);
#303=ORIENTED_EDGE('',*,*,#353,.T.);
#304=ORIENTED_EDGE('',*,*,#319,.T.);
#305=ORIENTED_EDGE('',*,*,#387,.T.);
#306=ORIENTED_EDGE('',*,*,#388,.F.);
#307=ORIENTED_EDGE('',*,*,#350,.T.);
#308=ORIENTED_EDGE('',*,*,#317,.T.);
#309=ORIENTED_EDGE('',*,*,#388,.T.);
#310=ORIENTED_EDGE('',*,*,#389,.F.);
#311=ORIENTED_EDGE('',*,*,#351,.T.);
#312=ORIENTED_EDGE('',*,*,#315,.T.);
#313=ORIENTED_EDGE('',*,*,#389,.T.);
#314=EDGE_CURVE('',#390,#390,#446,.T.);
#315=EDGE_CURVE('',#391,#391,#447,.T.);
#316=EDGE_CURVE('',#392,#392,#448,.T.);
#317=EDGE_CURVE('',#393,#393,#449,.T.);
#318=EDGE_CURVE('',#394,#394,#450,.T.);
#319=EDGE_CURVE('',#395,#395,#451,.T.);
#320=EDGE_CURVE('',#396,#396,#452,.T.);
#321=EDGE_CURVE('',#397,#397,#453,.T.);
#322=EDGE_CURVE('',#398,#399,#12,.T.);
#323=EDGE_CURVE('',#398,#400,#13,.T.);
#324=EDGE_CURVE('',#400,#401,#14,.T.);
#325=EDGE_CURVE('',#399,#401,#15,.T.);
#326=EDGE_CURVE('',#402,#403,#16,.T.);
#327=EDGE_CURVE('',#402,#404,#17,.T.);
#328=EDGE_CURVE('',#404,#405,#18,.T.);
#329=EDGE_CURVE('',#403,#405,#19,.T.);
#330=EDGE_CURVE('',#406,#407,#20,.T.);
#331=EDGE_CURVE('',#406,#408,#21,.T.);
#332=EDGE_CURVE('',#408,#409,#22,.T.);
#333=EDGE_CURVE('',#407,#409,#23,.T.);
#334=EDGE_CURVE('',#410,#411,#24,.T.);
#335=EDGE_CURVE('',#410,#412,#25,.T.);
#336=EDGE_CURVE('',#412,#413,#26,.T.);
#337=EDGE_CURVE('',#411,#413,#27,.T.);
#338=EDGE_CURVE('',#414,#415,#28,.T.);
#339=EDGE_CURVE('',#414,#416,#29,.T.);
#340=EDGE_CURVE('',#416,#417,#30,.T.);
#341=EDGE_CURVE('',#415,#417,#31,.T.);
#342=EDGE_CURVE('',#418,#419,#32,.T.);
#343=EDGE_CURVE('',#398,#418,#33,.T.);
#344=EDGE_CURVE('',#399,#419,#34,.T.);
#345=EDGE_CURVE('',#418,#420,#35,.T.);
#346=EDGE_CURVE('',#400,#420,#36,.T.);
#347=EDGE_CURVE('',#420,#421,#37,.T.);
#348=EDGE_CURVE('',#401,#421,#38,.T.);
#349=EDGE_CURVE('',#419,#421,#39,.T.);
#350=EDGE_CURVE('',#422,#422,#454,.T.);
#351=EDGE_CURVE('',#423,#423,#455,.T.);
#352=EDGE_CURVE('',#424,#424,#456,.T.);
#353=EDGE_CURVE('',#425,#425,#457,.T.);
#354=EDGE_CURVE('',#426,#402,#40,.T.);
#355=EDGE_CURVE('',#426,#427,#41,.T.);
#356=EDGE_CURVE('',#427,#404,#42,.T.);
#357=EDGE_CURVE('',#428,#403,#43,.T.);
#358=EDGE_CURVE('',#426,#428,#44,.T.);
#359=EDGE_CURVE('',#429,#405,#45,.T.);
#360=EDGE_CURVE('',#428,#429,#46,.T.);
#361=EDGE_CURVE('',#427,#429,#47,.T.);
#362=EDGE_CURVE('',#430,#406,#48,.T.);
#363=EDGE_CURVE('',#430,#431,#49,.T.);
#364=EDGE_CURVE('',#431,#408,#50,.T.);
#365=EDGE_CURVE('',#432,#407,#51,.T.);
#366=EDGE_CURVE('',#430,#432,#52,.T.);
#367=EDGE_CURVE('',#433,#409,#53,.T.);
#368=EDGE_CURVE('',#432,#433,#54,.T.);
#369=EDGE_CURVE('',#431,#433,#55,.T.);
#370=EDGE_CURVE('',#434,#410,#56,.T.);
#371=EDGE_CURVE('',#434,#435,#57,.T.);
#372=EDGE_CURVE('',#435,#412,#58,.T.);
#373=EDGE_CURVE('',#436,#411,#59,.T.);
#374=EDGE_CURVE('',#434,#436,#60,.T.);
#375=EDGE_CURVE('',#437,#413,#61,.T.);
#376=EDGE_CURVE('',#436,#437,#62,.T.);
#377=EDGE_CURVE('',#435,#437,#63,.T.);
#378=EDGE_CURVE('',#438,#414,#64,.T.);
#379=EDGE_CURVE('',#438,#439,#65,.T.);
#380=EDGE_CURVE('',#439,#416,#66,.T.);
#381=EDGE_CURVE('',#440,#415,#67,.T.);
#382=EDGE_CURVE('',#438,#440,#68,.T.);
#383=EDGE_CURVE('',#441,#417,#69,.T.);
#384=EDGE_CURVE('',#440,#441,#70,.T.);
#385=EDGE_CURVE('',#439,#441,#71,.T.);
#386=EDGE_CURVE('',#442,#442,#458,.T.);
#387=EDGE_CURVE('',#443,#443,#459,.T.);
#388=EDGE_CURVE('',#444,#444,#460,.T.);
#389=EDGE_CURVE('',#445,#445,#461,.T.);
#390=VERTEX_POINT('',#872);
#391=VERTEX_POINT('',#874);
#392=VERTEX_POINT('',#877);
#393=VERTEX_POINT('',#879);
#394=VERTEX_POINT('',#882);
#395=VERTEX_POINT('',#884);
#396=VERTEX_POINT('',#887);
#397=VERTEX_POINT('',#889);
#398=VERTEX_POINT('',#892);
#399=VERTEX_POINT('',#893);
#400=VERTEX_POINT('',#895);
#401=VERTEX_POINT('',#897);
#402=VERTEX_POINT('',#900);
#403=VERTEX_POINT('',#901);
#404=VERTEX_POINT('',#903);
#405=VERTEX_POINT('',#905);
#406=VERTEX_POINT('',#908);
#407=VERTEX_POINT('',#909);
#408=VERTEX_POINT('',#911);
#409=VERTEX_POINT('',#913);
#410=VERTEX_POINT('',#916);
#411=VERTEX_POINT('',#917);
#412=VERTEX_POINT('',#919);
#413=VERTEX_POINT('',#921);
#414=VERTEX_POINT('',#924);
#415=VERTEX_POINT('',#925);
#416=VERTEX_POINT('',#927);
#417=VERTEX_POINT('',#929);
#418=VERTEX_POINT('',#933);
#419=VERTEX_POINT('',#934);
#420=VERTEX_POINT('',#939);
#421=VERTEX_POINT('',#943);
#422=VERTEX_POINT('',#949);
#423=VERTEX_POINT('',#951);
#424=VERTEX_POINT('',#953);
#425=VERTEX_POINT('',#955);
#426=VERTEX_POINT('',#958);
#427=VERTEX_POINT('',#960);
#428=VERTEX_POINT('',#964);
#429=VERTEX_POINT('',#968);
#430=VERTEX_POINT('',#975);
#431=VERTEX_POINT('',#977);
#432=VERTEX_POINT('',#981);
#433=VERTEX_POINT('',#985);
#434=VERTEX_POINT('',#992);
#435=VERTEX_POINT('',#994);
#436=VERTEX_POINT('',#998);
#437=VERTEX_POINT('',#1002);
#438=VERTEX_POINT('',#1009);
#439=VERTEX_POINT('',#1011);
#440=VERTEX_POINT('',#1015);
#441=VERTEX_POINT('',#1019);
#442=VERTEX_POINT('',#1026);
#443=VERTEX_POINT('',#1030);
#444=VERTEX_POINT('',#1034);
#445=VERTEX_POINT('',#1038);
#446=CIRCLE('',#646,0.0011);
#447=CIRCLE('',#647,0.0011);
#448=CIRCLE('',#649,0.0011);
#449=CIRCLE('',#650,0.0011);
#450=CIRCLE('',#652,0.0011);
#451=CIRCLE('',#653,0.0011);
#452=CIRCLE('',#655,0.0011);
#453=CIRCLE('',#656,0.0011);
#454=CIRCLE('',#663,0.00225);
#455=CIRCLE('',#664,0.00225);
#456=CIRCLE('',#665,0.00225);
#457=CIRCLE('',#666,0.00225);
#458=CIRCLE('',#688,0.00225);
#459=CIRCLE('',#691,0.00225);
#460=CIRCLE('',#694,0.00225);
#461=CIRCLE('',#697,0.00225);
#462=EDGE_LOOP('',(#162));
#463=EDGE_LOOP('',(#163));
#464=EDGE_LOOP('',(#164));
#465=EDGE_LOOP('',(#165));
#466=EDGE_LOOP('',(#166));
#467=EDGE_LOOP('',(#167));
#468=EDGE_LOOP('',(#168));
#469=EDGE_LOOP('',(#169));
#470=EDGE_LOOP('',(#170));
#471=EDGE_LOOP('',(#171));
#472=EDGE_LOOP('',(#172));
#473=EDGE_LOOP('',(#173));
#474=EDGE_LOOP('',(#174,#175,#176,#177));
#475=EDGE_LOOP('',(#178,#179,#180,#181));
#476=EDGE_LOOP('',(#182,#183,#184,#185));
#477=EDGE_LOOP('',(#186,#187,#188,#189));
#478=EDGE_LOOP('',(#190,#191,#192,#193));
#479=EDGE_LOOP('',(#194,#195,#196,#197));
#480=EDGE_LOOP('',(#198,#199,#200,#201));
#481=EDGE_LOOP('',(#202,#203,#204,#205));
#482=EDGE_LOOP('',(#206,#207,#208,#209));
#483=EDGE_LOOP('',(#210));
#484=EDGE_LOOP('',(#211));
#485=EDGE_LOOP('',(#212));
#486=EDGE_LOOP('',(#213));
#487=EDGE_LOOP('',(#214,#215,#216,#217));
#488=EDGE_LOOP('',(#218,#219,#220,#221));
#489=EDGE_LOOP('',(#222,#223,#224,#225));
#490=EDGE_LOOP('',(#226,#227,#228,#229));
#491=EDGE_LOOP('',(#230,#231,#232,#233));
#492=EDGE_LOOP('',(#234,#235,#236,#237));
#493=EDGE_LOOP('',(#238,#239,#240,#241));
#494=EDGE_LOOP('',(#242,#243,#244,#245));
#495=EDGE_LOOP('',(#246,#247,#248,#249));
#496=EDGE_LOOP('',(#250,#251,#252,#253));
#497=EDGE_LOOP('',(#254,#255,#256,#257));
#498=EDGE_LOOP('',(#258,#259,#260,#261));
#499=EDGE_LOOP('',(#262,#263,#264,#265));
#500=EDGE_LOOP('',(#266,#267,#268,#269));
#501=EDGE_LOOP('',(#270,#271,#272,#273));
#502=EDGE_LOOP('',(#274,#275,#276,#277));
#503=EDGE_LOOP('',(#278,#279,#280,#281));
#504=EDGE_LOOP('',(#282,#283,#284,#285));
#505=EDGE_LOOP('',(#286,#287,#288,#289));
#506=EDGE_LOOP('',(#290,#291,#292,#293));
#507=EDGE_LOOP('',(#294,#295,#296,#297));
#508=EDGE_LOOP('',(#298));
#509=EDGE_LOOP('',(#299));
#510=EDGE_LOOP('',(#300));
#511=EDGE_LOOP('',(#301));
#512=EDGE_LOOP('',(#302));
#513=EDGE_LOOP('',(#303));
#514=EDGE_LOOP('',(#304));
#515=EDGE_LOOP('',(#305));
#516=EDGE_LOOP('',(#306));
#517=EDGE_LOOP('',(#307));
#518=EDGE_LOOP('',(#308));
#519=EDGE_LOOP('',(#309));
#520=EDGE_LOOP('',(#310));
#521=EDGE_LOOP('',(#311));
#522=EDGE_LOOP('',(#312));
#523=EDGE_LOOP('',(#313));
#524=FACE_BOUND('',#462,.T.);
#525=FACE_BOUND('',#463,.T.);
#526=FACE_BOUND('',#464,.T.);
#527=FACE_BOUND('',#465,.T.);
#528=FACE_BOUND('',#466,.T.);
#529=FACE_BOUND('',#467,.T.);
#530=FACE_BOUND('',#468,.T.);
#531=FACE_BOUND('',#469,.T.);
#532=FACE_BOUND('',#470,.T.);
#533=FACE_BOUND('',#471,.T.);
#534=FACE_BOUND('',#472,.T.);
#535=FACE_BOUND('',#473,.T.);
#536=FACE_BOUND('',#474,.T.);
#537=FACE_BOUND('',#475,.T.);
#538=FACE_BOUND('',#476,.T.);
#539=FACE_BOUND('',#477,.T.);
#540=FACE_BOUND('',#478,.T.);
#541=FACE_BOUND('',#479,.T.);
#542=FACE_BOUND('',#480,.T.);
#543=FACE_BOUND('',#481,.T.);
#544=FACE_BOUND('',#482,.T.);
#545=FACE_BOUND('',#483,.T.);
#546=FACE_BOUND('',#484,.T.);
#547=FACE_BOUND('',#485,.T.);
#548=FACE_BOUND('',#486,.T.);
#549=FACE_BOUND('',#487,.T.);
#550=FACE_BOUND('',#488,.T.);
#551=FACE_BOUND('',#489,.T.);
#552=FACE_BOUND('',#490,.T.);
#553=FACE_BOUND('',#491,.T.);
#554=FACE_BOUND('',#492,.T.);
#555=FACE_BOUND('',#493,.T.);
#556=FACE_BOUND('',#494,.T.);
#557=FACE_BOUND('',#495,.T.);
#558=FACE_BOUND('',#496,.T.);
#559=FACE_BOUND('',#497,.T.);
#560=FACE_BOUND('',#498,.T.);
#561=FACE_BOUND('',#499,.T.);
#562=FACE_BOUND('',#500,.T.);
#563=FACE_BOUND('',#501,.T.);
#564=FACE_BOUND('',#502,.T.);
#565=FACE_BOUND('',#503,.T.);
#566=FACE_BOUND('',#504,.T.);
#567=FACE_BOUND('',#505,.T.);
#568=FACE_BOUND('',#506,.T.);
#569=FACE_BOUND('',#507,.T.);
#570=FACE_BOUND('',#508,.T.);
#571=FACE_BOUND('',#509,.T.);
#572=FACE_BOUND('',#510,.T.);
#573=FACE_BOUND('',#511,.T.);
#574=FACE_BOUND('',#512,.T.);
#575=FACE_BOUND('',#513,.T.);
#576=FACE_BOUND('',#514,.T.);
#577=FACE_BOUND('',#515,.T.);
#578=FACE_BOUND('',#516,.T.);
#579=FACE_BOUND('',#517,.T.);
#580=FACE_BOUND('',#518,.T.);
#581=FACE_BOUND('',#519,.T.);
#582=FACE_BOUND('',#520,.T.);
#583=FACE_BOUND('',#521,.T.);
#584=FACE_BOUND('',#522,.T.);
#585=FACE_BOUND('',#523,.T.);
#586=CYLINDRICAL_SURFACE('',#645,0.0011);
#587=CYLINDRICAL_SURFACE('',#648,0.0011);
#588=CYLINDRICAL_SURFACE('',#651,0.0011);
#589=CYLINDRICAL_SURFACE('',#654,0.0011);
#590=CYLINDRICAL_SURFACE('',#687,0.00225);
#591=CYLINDRICAL_SURFACE('',#690,0.00225);
#592=CYLINDRICAL_SURFACE('',#693,0.00225);
#593=CYLINDRICAL_SURFACE('',#696,0.00225);
#594=ADVANCED_FACE('',(#524,#525),#586,.F.);
#595=ADVANCED_FACE('',(#526,#527),#587,.F.);
#596=ADVANCED_FACE('',(#528,#529),#588,.F.);
#597=ADVANCED_FACE('',(#530,#531),#589,.F.);
#598=ADVANCED_FACE('',(#532,#533,#534,#535,#536,#537,#538,#539,#540),#132,.T.);
#599=ADVANCED_FACE('',(#541),#133,.T.);
#600=ADVANCED_FACE('',(#542),#134,.F.);
#601=ADVANCED_FACE('',(#543),#135,.F.);
#602=ADVANCED_FACE('',(#544),#136,.T.);
#603=ADVANCED_FACE('',(#545,#546,#547,#548,#549),#137,.F.);
#604=ADVANCED_FACE('',(#550),#138,.T.);
#605=ADVANCED_FACE('',(#551),#139,.F.);
#606=ADVANCED_FACE('',(#552),#140,.F.);
#607=ADVANCED_FACE('',(#553),#141,.T.);
#608=ADVANCED_FACE('',(#554),#142,.T.);
#609=ADVANCED_FACE('',(#555),#143,.T.);
#610=ADVANCED_FACE('',(#556),#144,.F.);
#611=ADVANCED_FACE('',(#557),#145,.F.);
#612=ADVANCED_FACE('',(#558),#146,.T.);
#613=ADVANCED_FACE('',(#559),#147,.T.);
#614=ADVANCED_FACE('',(#560),#148,.T.);
#615=ADVANCED_FACE('',(#561),#149,.F.);
#616=ADVANCED_FACE('',(#562),#150,.F.);
#617=ADVANCED_FACE('',(#563),#151,.T.);
#618=ADVANCED_FACE('',(#564),#152,.T.);
#619=ADVANCED_FACE('',(#565),#153,.T.);
#620=ADVANCED_FACE('',(#566),#154,.F.);
#621=ADVANCED_FACE('',(#567),#155,.F.);
#622=ADVANCED_FACE('',(#568),#156,.T.);
#623=ADVANCED_FACE('',(#569),#157,.T.);
#624=ADVANCED_FACE('',(#570,#571),#590,.F.);
#625=ADVANCED_FACE('',(#572,#573),#158,.T.);
#626=ADVANCED_FACE('',(#574,#575),#591,.F.);
#627=ADVANCED_FACE('',(#576,#577),#159,.T.);
#628=ADVANCED_FACE('',(#578,#579),#592,.F.);
#629=ADVANCED_FACE('',(#580,#581),#160,.T.);
#630=ADVANCED_FACE('',(#582,#583),#593,.F.);
#631=ADVANCED_FACE('',(#584,#585),#161,.T.);
#632=CLOSED_SHELL('',(#594,#595,#596,#597,#598,#599,#600,#601,#602,#603,#604,#605,#606,#607,#608,#609,#610,#611,#612,#613,#614,#615,#616,#617,#618,#619,#620,#621,#622,#623,#624,#625,#626,#627,#628,#629,#630,#631));
#633=STYLED_ITEM('',(#634),#641);
#634=PRESENTATION_STYLE_ASSIGNMENT((#635));
#635=SURFACE_STYLE_USAGE(.BOTH.,#636);
#636=SURFACE_SIDE_STYLE('',(#637));
#637=SURFACE_STYLE_FILL_AREA(#638);
#638=FILL_AREA_STYLE('',(#639));
#639=FILL_AREA_STYLE_COLOUR('',#640);
#640=COLOUR_RGB('',0.615686274509804,0.811764705882353,0.929411764705882);
#641=MANIFOLD_SOLID_BREP('Part 1',#632);
#642=SHAPE_DEFINITION_REPRESENTATION(#1046,#643);
#643=SHAPE_REPRESENTATION('Part 1',(#644),#1041);
#644=AXIS2_PLACEMENT_3D('',#869,#699,#700);
#645=AXIS2_PLACEMENT_3D('',#870,#701,#702);
#646=AXIS2_PLACEMENT_3D('',#871,#703,#704);
#647=AXIS2_PLACEMENT_3D('',#873,#705,#706);
#648=AXIS2_PLACEMENT_3D('',#875,#707,#708);
#649=AXIS2_PLACEMENT_3D('',#876,#709,#710);
#650=AXIS2_PLACEMENT_3D('',#878,#711,#712);
#651=AXIS2_PLACEMENT_3D('',#880,#713,#714);
#652=AXIS2_PLACEMENT_3D('',#881,#715,#716);
#653=AXIS2_PLACEMENT_3D('',#883,#717,#718);
#654=AXIS2_PLACEMENT_3D('',#885,#719,#720);
#655=AXIS2_PLACEMENT_3D('',#886,#721,#722);
#656=AXIS2_PLACEMENT_3D('',#888,#723,#724);
#657=AXIS2_PLACEMENT_3D('',#890,#725,#726);
#658=AXIS2_PLACEMENT_3D('',#931,#747,#748);
#659=AXIS2_PLACEMENT_3D('',#937,#752,#753);
#660=AXIS2_PLACEMENT_3D('',#941,#756,#757);
#661=AXIS2_PLACEMENT_3D('',#945,#760,#761);
#662=AXIS2_PLACEMENT_3D('',#947,#763,#764);
#663=AXIS2_PLACEMENT_3D('',#948,#765,#766);
#664=AXIS2_PLACEMENT_3D('',#950,#767,#768);
#665=AXIS2_PLACEMENT_3D('',#952,#769,#770);
#666=AXIS2_PLACEMENT_3D('',#954,#771,#772);
#667=AXIS2_PLACEMENT_3D('',#956,#773,#774);
#668=AXIS2_PLACEMENT_3D('',#962,#778,#779);
#669=AXIS2_PLACEMENT_3D('',#966,#782,#783);
#670=AXIS2_PLACEMENT_3D('',#970,#786,#787);
#671=AXIS2_PLACEMENT_3D('',#972,#789,#790);
#672=AXIS2_PLACEMENT_3D('',#973,#791,#792);
#673=AXIS2_PLACEMENT_3D('',#979,#796,#797);
#674=AXIS2_PLACEMENT_3D('',#983,#800,#801);
#675=AXIS2_PLACEMENT_3D('',#987,#804,#805);
#676=AXIS2_PLACEMENT_3D('',#989,#807,#808);
#677=AXIS2_PLACEMENT_3D('',#990,#809,#810);
#678=AXIS2_PLACEMENT_3D('',#996,#814,#815);
#679=AXIS2_PLACEMENT_3D('',#1000,#818,#819);
#680=AXIS2_PLACEMENT_3D('',#1004,#822,#823);
#681=AXIS2_PLACEMENT_3D('',#1006,#825,#826);
#682=AXIS2_PLACEMENT_3D('',#1007,#827,#828);
#683=AXIS2_PLACEMENT_3D('',#1013,#832,#833);
#684=AXIS2_PLACEMENT_3D('',#1017,#836,#837);
#685=AXIS2_PLACEMENT_3D('',#1021,#840,#841);
#686=AXIS2_PLACEMENT_3D('',#1023,#843,#844);
#687=AXIS2_PLACEMENT_3D('',#1024,#845,#846);
#688=AXIS2_PLACEMENT_3D('',#1025,#847,#848);
#689=AXIS2_PLACEMENT_3D('',#1027,#849,#850);
#690=AXIS2_PLACEMENT_3D('',#1028,#851,#852);
#691=AXIS2_PLACEMENT_3D('',#1029,#853,#854);
#692=AXIS2_PLACEMENT_3D('',#1031,#855,#856);
#693=AXIS2_PLACEMENT_3D('',#1032,#857,#858);
#694=AXIS2_PLACEMENT_3D('',#1033,#859,#860);
#695=AXIS2_PLACEMENT_3D('',#1035,#861,#862);
#696=AXIS2_PLACEMENT_3D('',#1036,#863,#864);
#697=AXIS2_PLACEMENT_3D('',#1037,#865,#866);
#698=AXIS2_PLACEMENT_3D('',#1039,#867,#868);
#699=DIRECTION('',(0.,0.,1.));
#700=DIRECTION('',(1.,0.,0.));
#701=DIRECTION('',(0.,0.,1.));
#702=DIRECTION('',(1.,0.,0.));
#703=DIRECTION('',(0.,0.,1.));
#704=DIRECTION('',(1.,0.,0.));
#705=DIRECTION('',(0.,0.,1.));
#706=DIRECTION('',(1.,0.,0.));
#707=DIRECTION('',(0.,0.,1.));
#708=DIRECTION('',(1.,0.,0.));
#709=DIRECTION('',(0.,0.,1.));
#710=DIRECTION('',(1.,0.,0.));
#711=DIRECTION('',(0.,0.,1.));
#712=DIRECTION('',(1.,0.,0.));
#713=DIRECTION('',(0.,0.,1.));
#714=DIRECTION('',(1.,0.,0.));
#715=DIRECTION('',(0.,0.,1.));
#716=DIRECTION('',(1.,0.,0.));
#717=DIRECTION('',(0.,0.,1.));
#718=DIRECTION('',(1.,0.,0.));
#719=DIRECTION('',(0.,0.,1.));
#720=DIRECTION('',(1.,0.,0.));
#721=DIRECTION('',(0.,0.,1.));
#722=DIRECTION('',(1.,0.,0.));
#723=DIRECTION('',(0.,0.,1.));
#724=DIRECTION('',(1.,0.,0.));
#725=DIRECTION('',(0.,0.,1.));
#726=DIRECTION('',(1.,0.,0.));
#727=DIRECTION('',(1.,0.,0.));
#728=DIRECTION('',(0.,-1.,0.));
#729=DIRECTION('',(1.,0.,0.));
#730=DIRECTION('',(0.,-1.,0.));
#731=DIRECTION('',(0.,-1.,0.));
#732=DIRECTION('',(1.,-2.3569612445337E-17,0.));
#733=DIRECTION('',(0.,-1.,0.));
#734=DIRECTION('',(1.,-1.88556899562696E-17,0.));
#735=DIRECTION('',(0.,-1.,0.));
#736=DIRECTION('',(1.,-2.37633352873535E-16,0.));
#737=DIRECTION('',(0.,-1.,0.));
#738=DIRECTION('',(1.,-2.49515020517212E-16,0.));
#739=DIRECTION('',(0.,-1.,0.));
#740=DIRECTION('',(1.,0.,0.));
#741=DIRECTION('',(0.,-1.,0.));
#742=DIRECTION('',(1.,0.,0.));
#743=DIRECTION('',(-2.31296463463574E-16,-1.,0.));
#744=DIRECTION('',(1.,0.,0.));
#745=DIRECTION('',(-2.31296463463574E-16,-1.,0.));
#746=DIRECTION('',(1.,0.,0.));
#747=DIRECTION('',(0.,1.,0.));
#748=DIRECTION('',(0.,0.,1.));
#749=DIRECTION('',(1.,0.,0.));
#750=DIRECTION('',(0.,0.,-1.));
#751=DIRECTION('',(0.,0.,-1.));
#752=DIRECTION('',(1.,0.,0.));
#753=DIRECTION('',(0.,0.,-1.));
#754=DIRECTION('',(0.,-1.,0.));
#755=DIRECTION('',(0.,0.,-1.));
#756=DIRECTION('',(0.,1.,0.));
#757=DIRECTION('',(0.,0.,1.));
#758=DIRECTION('',(1.,0.,0.));
#759=DIRECTION('',(0.,0.,-1.));
#760=DIRECTION('',(1.,0.,0.));
#761=DIRECTION('',(0.,0.,-1.));
#762=DIRECTION('',(0.,-1.,0.));
#763=DIRECTION('',(0.,0.,1.));
#764=DIRECTION('',(1.,0.,0.));
#765=DIRECTION('',(0.,0.,-1.));
#766=DIRECTION('',(-1.,0.,0.));
#767=DIRECTION('',(0.,0.,-1.));
#768=DIRECTION('',(-1.,0.,0.));
#769=DIRECTION('',(0.,0.,-1.));
#770=DIRECTION('',(-1.,0.,0.));
#771=DIRECTION('',(0.,0.,-1.));
#772=DIRECTION('',(-1.,0.,0.));
#773=DIRECTION('',(-2.3569612445337E-17,-1.,0.));
#774=DIRECTION('',(1.,-2.3569612445337E-17,0.));
#775=DIRECTION('',(0.,0.,1.));
#776=DIRECTION('',(1.,-2.3569612445337E-17,0.));
#777=DIRECTION('',(0.,0.,1.));
#778=DIRECTION('',(-1.,0.,0.));
#779=DIRECTION('',(0.,0.,1.));
#780=DIRECTION('',(0.,0.,1.));
#781=DIRECTION('',(0.,-1.,0.));
#782=DIRECTION('',(-1.88556899562696E-17,-1.,0.));
#783=DIRECTION('',(1.,-1.88556899562696E-17,0.));
#784=DIRECTION('',(0.,0.,1.));
#785=DIRECTION('',(1.,-1.88556899562696E-17,0.));
#786=DIRECTION('',(-1.,0.,0.));
#787=DIRECTION('',(0.,0.,1.));
#788=DIRECTION('',(0.,-1.,0.));
#789=DIRECTION('',(0.,0.,1.));
#790=DIRECTION('',(1.,0.,0.));
#791=DIRECTION('',(-2.37633352873535E-16,-1.,0.));
#792=DIRECTION('',(1.,-2.37633352873535E-16,0.));
#793=DIRECTION('',(0.,0.,1.));
#794=DIRECTION('',(1.,-2.37633352873535E-16,0.));
#795=DIRECTION('',(0.,0.,1.));
#796=DIRECTION('',(-1.,0.,0.));
#797=DIRECTION('',(0.,0.,1.));
#798=DIRECTION('',(0.,0.,1.));
#799=DIRECTION('',(0.,-1.,0.));
#800=DIRECTION('',(-2.49515020517212E-16,-1.,0.));
#801=DIRECTION('',(1.,-2.49515020517212E-16,0.));
#802=DIRECTION('',(0.,0.,1.));
#803=DIRECTION('',(1.,-2.49515020517212E-16,0.));
#804=DIRECTION('',(-1.,0.,0.));
#805=DIRECTION('',(0.,0.,1.));
#806=DIRECTION('',(0.,-1.,0.));
#807=DIRECTION('',(0.,0.,1.));
#808=DIRECTION('',(1.,0.,0.));
#809=DIRECTION('',(0.,-1.,0.));
#810=DIRECTION('',(0.,0.,-1.));
#811=DIRECTION('',(0.,0.,1.));
#812=DIRECTION('',(1.,0.,0.));
#813=DIRECTION('',(0.,0.,1.));
#814=DIRECTION('',(-1.,0.,0.));
#815=DIRECTION('',(0.,0.,1.));
#816=DIRECTION('',(0.,0.,1.));
#817=DIRECTION('',(0.,-1.,0.));
#818=DIRECTION('',(0.,-1.,0.));
#819=DIRECTION('',(0.,0.,-1.));
#820=DIRECTION('',(0.,0.,1.));
#821=DIRECTION('',(1.,0.,0.));
#822=DIRECTION('',(-1.,0.,0.));
#823=DIRECTION('',(0.,0.,1.));
#824=DIRECTION('',(0.,-1.,0.));
#825=DIRECTION('',(0.,0.,1.));
#826=DIRECTION('',(1.,0.,0.));
#827=DIRECTION('',(0.,-1.,0.));
#828=DIRECTION('',(0.,0.,-1.));
#829=DIRECTION('',(0.,0.,1.));
#830=DIRECTION('',(1.,0.,0.));
#831=DIRECTION('',(0.,0.,1.));
#832=DIRECTION('',(-1.,2.31296463463574E-16,0.));
#833=DIRECTION('',(-2.31296463463574E-16,-1.,0.));
#834=DIRECTION('',(0.,0.,1.));
#835=DIRECTION('',(-2.31296463463574E-16,-1.,0.));
#836=DIRECTION('',(0.,-1.,0.));
#837=DIRECTION('',(0.,0.,-1.));
#838=DIRECTION('',(0.,0.,1.));
#839=DIRECTION('',(1.,0.,0.));
#840=DIRECTION('',(-1.,2.31296463463574E-16,0.));
#841=DIRECTION('',(-2.31296463463574E-16,-1.,0.));
#842=DIRECTION('',(-2.31296463463574E-16,-1.,0.));
#843=DIRECTION('',(0.,0.,1.));
#844=DIRECTION('',(1.,0.,0.));
#845=DIRECTION('',(0.,0.,-1.));
#846=DIRECTION('',(-1.,0.,0.));
#847=DIRECTION('',(0.,0.,-1.));
#848=DIRECTION('',(-1.,0.,0.));
#849=DIRECTION('',(0.,0.,-1.));
#850=DIRECTION('',(1.,0.,0.));
#851=DIRECTION('',(0.,0.,-1.));
#852=DIRECTION('',(-1.,0.,0.));
#853=DIRECTION('',(0.,0.,-1.));
#854=DIRECTION('',(-1.,0.,0.));
#855=DIRECTION('',(0.,0.,-1.));
#856=DIRECTION('',(1.,0.,0.));
#857=DIRECTION('',(0.,0.,-1.));
#858=DIRECTION('',(-1.,0.,0.));
#859=DIRECTION('',(0.,0.,-1.));
#860=DIRECTION('',(-1.,0.,0.));
#861=DIRECTION('',(0.,0.,-1.));
#862=DIRECTION('',(1.,0.,0.));
#863=DIRECTION('',(0.,0.,-1.));
#864=DIRECTION('',(-1.,0.,0.));
#865=DIRECTION('',(0.,0.,-1.));
#866=DIRECTION('',(-1.,0.,0.));
#867=DIRECTION('',(0.,0.,-1.));
#868=DIRECTION('',(1.,0.,0.));
#869=CARTESIAN_POINT('',(0.,0.,0.));
#870=CARTESIAN_POINT('',(-0.06307,-0.01904,-0.0125));
#871=CARTESIAN_POINT('',(-0.06307,-0.01904,0.0125));
#872=CARTESIAN_POINT('',(-0.06197,-0.01904,0.0125));
#873=CARTESIAN_POINT('',(-0.06307,-0.01904,0.004));
#874=CARTESIAN_POINT('',(-0.06197,-0.01904,0.004));
#875=CARTESIAN_POINT('',(-0.06307,0.01904,-0.0125));
#876=CARTESIAN_POINT('',(-0.06307,0.01904,0.0125));
#877=CARTESIAN_POINT('',(-0.06197,0.01904,0.0125));
#878=CARTESIAN_POINT('',(-0.06307,0.01904,0.004));
#879=CARTESIAN_POINT('',(-0.06197,0.01904,0.004));
#880=CARTESIAN_POINT('',(0.06307,0.01904,-0.0125));
#881=CARTESIAN_POINT('',(0.06307,0.01904,0.0125));
#882=CARTESIAN_POINT('',(0.06417,0.01904,0.0125));
#883=CARTESIAN_POINT('',(0.06307,0.01904,0.004));
#884=CARTESIAN_POINT('',(0.06417,0.01904,0.004));
#885=CARTESIAN_POINT('',(0.06307,-0.01904,-0.0125));
#886=CARTESIAN_POINT('',(0.06307,-0.01904,0.0125));
#887=CARTESIAN_POINT('',(0.06417,-0.01904,0.0125));
#888=CARTESIAN_POINT('',(0.06307,-0.01904,0.004));
#889=CARTESIAN_POINT('',(0.06417,-0.01904,0.004));
#890=CARTESIAN_POINT('',(1.38777878078145E-17,-6.93889390390723E-18,0.0125));
#891=CARTESIAN_POINT('',(0.,0.0248,0.0125));
#892=CARTESIAN_POINT('',(-0.06883,0.0248,0.0125));
#893=CARTESIAN_POINT('',(0.06883,0.0248,0.0125));
#894=CARTESIAN_POINT('',(-0.06883,-1.04083408558608E-17,0.0125));
#895=CARTESIAN_POINT('',(-0.06883,-0.0248,0.0125));
#896=CARTESIAN_POINT('',(0.,-0.0248,0.0125));
#897=CARTESIAN_POINT('',(0.06883,-0.0248,0.0125));
#898=CARTESIAN_POINT('',(0.06883,-1.04083408558608E-17,0.0125));
#899=CARTESIAN_POINT('',(-0.05583,-0.0068,0.0125));
#900=CARTESIAN_POINT('',(-0.05583,-0.000800000000000026,0.0125));
#901=CARTESIAN_POINT('',(-0.05583,-0.0128,0.0125));
#902=CARTESIAN_POINT('',(-0.00983,-0.000800000000000027,0.0125));
#903=CARTESIAN_POINT('',(0.03617,-0.000800000000000028,0.0125));
#904=CARTESIAN_POINT('',(0.03617,-0.0068,0.0125));
#905=CARTESIAN_POINT('',(0.03617,-0.0128,0.0125));
#906=CARTESIAN_POINT('',(-0.00983,-0.0128,0.0125));
#907=CARTESIAN_POINT('',(-0.04633,0.0118,0.0125));
#908=CARTESIAN_POINT('',(-0.04633,0.0178,0.0125));
#909=CARTESIAN_POINT('',(-0.04633,0.0058,0.0125));
#910=CARTESIAN_POINT('',(-0.00983,0.0178,0.0125));
#911=CARTESIAN_POINT('',(0.02667,0.0178,0.0125));
#912=CARTESIAN_POINT('',(0.02667,0.0118,0.0125));
#913=CARTESIAN_POINT('',(0.02667,0.0058,0.0125));
#914=CARTESIAN_POINT('',(-0.00983,0.0058,0.0125));
#915=CARTESIAN_POINT('',(0.05813,-1.04083408558608E-17,0.0125));
#916=CARTESIAN_POINT('',(0.05813,0.015,0.0125));
#917=CARTESIAN_POINT('',(0.05813,-0.015,0.0125));
#918=CARTESIAN_POINT('',(0.05913,0.015,0.0125));
#919=CARTESIAN_POINT('',(0.06013,0.015,0.0125));
#920=CARTESIAN_POINT('',(0.06013,-1.04083408558608E-17,0.0125));
#921=CARTESIAN_POINT('',(0.06013,-0.015,0.0125));
#922=CARTESIAN_POINT('',(0.05913,-0.015,0.0125));
#923=CARTESIAN_POINT('',(0.04263,-1.04083408558608E-17,0.0125));
#924=CARTESIAN_POINT('',(0.04263,0.015,0.0125));
#925=CARTESIAN_POINT('',(0.04263,-0.015,0.0125));
#926=CARTESIAN_POINT('',(0.04363,0.015,0.0125));
#927=CARTESIAN_POINT('',(0.04463,0.015,0.0125));
#928=CARTESIAN_POINT('',(0.04463,-1.04083408558608E-17,0.0125));
#929=CARTESIAN_POINT('',(0.04463,-0.015,0.0125));
#930=CARTESIAN_POINT('',(0.04363,-0.015,0.0125));
#931=CARTESIAN_POINT('',(0.,0.0248,0.0125));
#932=CARTESIAN_POINT('',(0.,0.0248,0.));
#933=CARTESIAN_POINT('',(-0.06883,0.0248,0.));
#934=CARTESIAN_POINT('',(0.06883,0.0248,0.));
#935=CARTESIAN_POINT('',(-0.06883,0.0248,0.0125));
#936=CARTESIAN_POINT('',(0.06883,0.0248,0.0125));
#937=CARTESIAN_POINT('',(-0.06883,-1.04083408558608E-17,0.0125));
#938=CARTESIAN_POINT('',(-0.06883,-1.04083408558608E-17,0.));
#939=CARTESIAN_POINT('',(-0.06883,-0.0248,0.));
#940=CARTESIAN_POINT('',(-0.06883,-0.0248,0.0125));
#941=CARTESIAN_POINT('',(0.,-0.0248,0.0125));
#942=CARTESIAN_POINT('',(0.,-0.0248,0.));
#943=CARTESIAN_POINT('',(0.06883,-0.0248,0.));
#944=CARTESIAN_POINT('',(0.06883,-0.0248,0.0125));
#945=CARTESIAN_POINT('',(0.06883,-1.04083408558608E-17,0.0125));
#946=CARTESIAN_POINT('',(0.06883,-1.04083408558608E-17,0.));
#947=CARTESIAN_POINT('',(1.38777878078145E-17,-6.93889390390723E-18,0.));
#948=CARTESIAN_POINT('',(-0.06307,0.01904,0.));
#949=CARTESIAN_POINT('',(-0.06532,0.01904,0.));
#950=CARTESIAN_POINT('',(-0.06307,-0.01904,0.));
#951=CARTESIAN_POINT('',(-0.06532,-0.01904,0.));
#952=CARTESIAN_POINT('',(0.06307,-0.01904,0.));
#953=CARTESIAN_POINT('',(0.06082,-0.01904,0.));
#954=CARTESIAN_POINT('',(0.06307,0.01904,0.));
#955=CARTESIAN_POINT('',(0.06082,0.01904,0.));
#956=CARTESIAN_POINT('',(-0.00983,-0.000800000000000027,0.0075));
#957=CARTESIAN_POINT('',(-0.05583,-0.000800000000000026,0.0075));
#958=CARTESIAN_POINT('',(-0.05583,-0.000800000000000026,0.0075));
#959=CARTESIAN_POINT('',(-0.00983,-0.000800000000000027,0.0075));
#960=CARTESIAN_POINT('',(0.03617,-0.000800000000000028,0.0075));
#961=CARTESIAN_POINT('',(0.03617,-0.000800000000000028,0.0075));
#962=CARTESIAN_POINT('',(-0.05583,-0.0068,0.0075));
#963=CARTESIAN_POINT('',(-0.05583,-0.0128,0.0075));
#964=CARTESIAN_POINT('',(-0.05583,-0.0128,0.0075));
#965=CARTESIAN_POINT('',(-0.05583,-0.0068,0.0075));
#966=CARTESIAN_POINT('',(-0.00983,-0.0128,0.0075));
#967=CARTESIAN_POINT('',(0.03617,-0.0128,0.0075));
#968=CARTESIAN_POINT('',(0.03617,-0.0128,0.0075));
#969=CARTESIAN_POINT('',(-0.00983,-0.0128,0.0075));
#970=CARTESIAN_POINT('',(0.03617,-0.0068,0.0075));
#971=CARTESIAN_POINT('',(0.03617,-0.0068,0.0075));
#972=CARTESIAN_POINT('',(0.,-1.04083408558608E-17,0.0075));
#973=CARTESIAN_POINT('',(-0.00983,0.0178,0.0075));
#974=CARTESIAN_POINT('',(-0.04633,0.0178,0.0075));
#975=CARTESIAN_POINT('',(-0.04633,0.0178,0.0075));
#976=CARTESIAN_POINT('',(-0.00983,0.0178,0.0075));
#977=CARTESIAN_POINT('',(0.02667,0.0178,0.0075));
#978=CARTESIAN_POINT('',(0.02667,0.0178,0.0075));
#979=CARTESIAN_POINT('',(-0.04633,0.0118,0.0075));
#980=CARTESIAN_POINT('',(-0.04633,0.0058,0.0075));
#981=CARTESIAN_POINT('',(-0.04633,0.0058,0.0075));
#982=CARTESIAN_POINT('',(-0.04633,0.0118,0.0075));
#983=CARTESIAN_POINT('',(-0.00983,0.0058,0.0075));
#984=CARTESIAN_POINT('',(0.02667,0.0058,0.0075));
#985=CARTESIAN_POINT('',(0.02667,0.0058,0.0075));
#986=CARTESIAN_POINT('',(-0.00983,0.0058,0.0075));
#987=CARTESIAN_POINT('',(0.02667,0.0118,0.0075));
#988=CARTESIAN_POINT('',(0.02667,0.0118,0.0075));
#989=CARTESIAN_POINT('',(0.,-1.04083408558608E-17,0.0075));
#990=CARTESIAN_POINT('',(0.05913,0.015,0.0065));
#991=CARTESIAN_POINT('',(0.05813,0.015,0.0065));
#992=CARTESIAN_POINT('',(0.05813,0.015,0.0065));
#993=CARTESIAN_POINT('',(0.05913,0.015,0.0065));
#994=CARTESIAN_POINT('',(0.06013,0.015,0.0065));
#995=CARTESIAN_POINT('',(0.06013,0.015,0.0065));
#996=CARTESIAN_POINT('',(0.05813,-1.04083408558608E-17,0.0065));
#997=CARTESIAN_POINT('',(0.05813,-0.015,0.0065));
#998=CARTESIAN_POINT('',(0.05813,-0.015,0.0065));
#999=CARTESIAN_POINT('',(0.05813,-1.04083408558608E-17,0.0065));
#1000=CARTESIAN_POINT('',(0.05913,-0.015,0.0065));
#1001=CARTESIAN_POINT('',(0.06013,-0.015,0.0065));
#1002=CARTESIAN_POINT('',(0.06013,-0.015,0.0065));
#1003=CARTESIAN_POINT('',(0.05913,-0.015,0.0065));
#1004=CARTESIAN_POINT('',(0.06013,-1.04083408558608E-17,0.0065));
#1005=CARTESIAN_POINT('',(0.06013,-1.04083408558608E-17,0.0065));
#1006=CARTESIAN_POINT('',(0.,-1.04083408558608E-17,0.0065));
#1007=CARTESIAN_POINT('',(0.04363,0.015,0.0065));
#1008=CARTESIAN_POINT('',(0.04263,0.015,0.0065));
#1009=CARTESIAN_POINT('',(0.04263,0.015,0.0065));
#1010=CARTESIAN_POINT('',(0.04363,0.015,0.0065));
#1011=CARTESIAN_POINT('',(0.04463,0.015,0.0065));
#1012=CARTESIAN_POINT('',(0.04463,0.015,0.0065));
#1013=CARTESIAN_POINT('',(0.04263,-1.04083408558608E-17,0.0065));
#1014=CARTESIAN_POINT('',(0.04263,-0.015,0.0065));
#1015=CARTESIAN_POINT('',(0.04263,-0.015,0.0065));
#1016=CARTESIAN_POINT('',(0.04263,-1.04083408558608E-17,0.0065));
#1017=CARTESIAN_POINT('',(0.04363,-0.015,0.0065));
#1018=CARTESIAN_POINT('',(0.04463,-0.015,0.0065));
#1019=CARTESIAN_POINT('',(0.04463,-0.015,0.0065));
#1020=CARTESIAN_POINT('',(0.04363,-0.015,0.0065));
#1021=CARTESIAN_POINT('',(0.04463,-1.04083408558608E-17,0.0065));
#1022=CARTESIAN_POINT('',(0.04463,-1.04083408558608E-17,0.0065));
#1023=CARTESIAN_POINT('',(0.,-1.04083408558608E-17,0.0065));
#1024=CARTESIAN_POINT('',(0.06307,-0.01904,0.004));
#1025=CARTESIAN_POINT('',(0.06307,-0.01904,0.004));
#1026=CARTESIAN_POINT('',(0.06082,-0.01904,0.004));
#1027=CARTESIAN_POINT('',(0.,-1.04083408558608E-17,0.004));
#1028=CARTESIAN_POINT('',(0.06307,0.01904,0.004));
#1029=CARTESIAN_POINT('',(0.06307,0.01904,0.004));
#1030=CARTESIAN_POINT('',(0.06082,0.01904,0.004));
#1031=CARTESIAN_POINT('',(0.,-1.04083408558608E-17,0.004));
#1032=CARTESIAN_POINT('',(-0.06307,0.01904,0.004));
#1033=CARTESIAN_POINT('',(-0.06307,0.01904,0.004));
#1034=CARTESIAN_POINT('',(-0.06532,0.01904,0.004));
#1035=CARTESIAN_POINT('',(0.,-1.04083408558608E-17,0.004));
#1036=CARTESIAN_POINT('',(-0.06307,-0.01904,0.004));
#1037=CARTESIAN_POINT('',(-0.06307,-0.01904,0.004));
#1038=CARTESIAN_POINT('',(-0.06532,-0.01904,0.004));
#1039=CARTESIAN_POINT('',(0.,-1.04083408558608E-17,0.004));
#1040=MECHANICAL_DESIGN_GEOMETRIC_PRESENTATION_REPRESENTATION('',(#633),#1041);
#1041=(
GEOMETRIC_REPRESENTATION_CONTEXT(3)
GLOBAL_UNCERTAINTY_ASSIGNED_CONTEXT((#1042))
GLOBAL_UNIT_ASSIGNED_CONTEXT((#1045,#1044,#1043))
REPRESENTATION_CONTEXT('Part 1','TOP_LEVEL_ASSEMBLY_PART')
);
#1042=UNCERTAINTY_MEASURE_WITH_UNIT(LENGTH_MEASURE(1.E-08),#1045,'DISTANCE_ACCURACY_VALUE','Maximum Tolerance applied to model');
#1043=(
NAMED_UNIT(*)
SI_UNIT($,.STERADIAN.)
SOLID_ANGLE_UNIT()
);
#1044=(
NAMED_UNIT(*)
PLANE_ANGLE_UNIT()
SI_UNIT($,.RADIAN.)
);
#1045=(
LENGTH_UNIT()
NAMED_UNIT(*)
SI_UNIT($,.METRE.)
);
#1046=PRODUCT_DEFINITION_SHAPE('','',#1047);
#1047=PRODUCT_DEFINITION('','',#1049,#1048);
#1048=PRODUCT_DEFINITION_CONTEXT('',#1055,'design');
#1049=PRODUCT_DEFINITION_FORMATION_WITH_SPECIFIED_SOURCE('','',#1051,.NOT_KNOWN.);
#1050=PRODUCT_RELATED_PRODUCT_CATEGORY('','',(#1051));
#1051=PRODUCT('Part 1','Part 1','Part 1',(#1053));
#1052=PRODUCT_CATEGORY('','');
#1053=PRODUCT_CONTEXT('',#1055,'mechanical');
#1054=APPLICATION_PROTOCOL_DEFINITION('international standard','ap242_managed_model_based_3d_engineering',2020,#1055);
#1055=APPLICATION_CONTEXT('managed model based 3d engineering');
ENDSEC;
END-ISO-10303-21;
