ISO-10303-21;
HEADER;
/* Generated by software containing ST-Developer
 * from STEP Tools, Inc. (www.steptools.com) 
 */
/* OPTION: using custom renumber hook */

FILE_DESCRIPTION(
/* description */ ('STEP AP242 Edition 2',
'CAx-IF Rec.Pracs.---Representation and Presentation of Product Manufa
cturing Information (PMI)---4.0---2014-10-13',
'CAx-IF Rec.Pracs.---3D Tessellated Geometry---0.4---2014-09-14','2;1',
'CAx-IF Rec.Pracs.---User Defined Attributes---1.5---2016-08-15'),
/* implementation_level */ '2;1');

FILE_NAME(
/* name */ 'Top Plate',
/* time_stamp */ '2026-07-14T16:28:32Z',
/* author */ (''),
/* organization */ (''),
/* preprocessor_version */ 'ST-DEVELOPER v20',
/* originating_system */ 'ONSHAPE BY PTC INC, 1.217',
/* authorisation */ '  ');

FILE_SCHEMA (('AP242_MANAGED_MODEL_BASED_3D_ENGINEERING_MIM_LF { 1 0 10303 442 3 1 4 }'));
ENDSEC;

DATA;
#10=SHAPE_REPRESENTATION_RELATIONSHIP('','',#543,#11);
#11=ADVANCED_BREP_SHAPE_REPRESENTATION('',(#541),#853);
#12=CYLINDRICAL_SURFACE('',#575,0.0011);
#13=CYLINDRICAL_SURFACE('',#576,0.0011);
#14=CYLINDRICAL_SURFACE('',#577,0.0011);
#15=CYLINDRICAL_SURFACE('',#578,0.0011);
#16=LINE('',#719,#76);
#17=LINE('',#722,#77);
#18=LINE('',#724,#78);
#19=LINE('',#726,#79);
#20=LINE('',#728,#80);
#21=LINE('',#730,#81);
#22=LINE('',#732,#82);
#23=LINE('',#734,#83);
#24=LINE('',#735,#84);
#25=LINE('',#738,#85);
#26=LINE('',#740,#86);
#27=LINE('',#742,#87);
#28=LINE('',#743,#88);
#29=LINE('',#746,#89);
#30=LINE('',#748,#90);
#31=LINE('',#750,#91);
#32=LINE('',#751,#92);
#33=LINE('',#754,#93);
#34=LINE('',#756,#94);
#35=LINE('',#758,#95);
#36=LINE('',#768,#96);
#37=LINE('',#771,#97);
#38=LINE('',#773,#98);
#39=LINE('',#775,#99);
#40=LINE('',#776,#100);
#41=LINE('',#779,#101);
#42=LINE('',#781,#102);
#43=LINE('',#783,#103);
#44=LINE('',#785,#104);
#45=LINE('',#787,#105);
#46=LINE('',#789,#106);
#47=LINE('',#791,#107);
#48=LINE('',#792,#108);
#49=LINE('',#795,#109);
#50=LINE('',#797,#110);
#51=LINE('',#799,#111);
#52=LINE('',#800,#112);
#53=LINE('',#803,#113);
#54=LINE('',#805,#114);
#55=LINE('',#807,#115);
#56=LINE('',#809,#116);
#57=LINE('',#810,#117);
#58=LINE('',#812,#118);
#59=LINE('',#814,#119);
#60=LINE('',#817,#120);
#61=LINE('',#818,#121);
#62=LINE('',#820,#122);
#63=LINE('',#822,#123);
#64=LINE('',#824,#124);
#65=LINE('',#826,#125);
#66=LINE('',#828,#126);
#67=LINE('',#830,#127);
#68=LINE('',#833,#128);
#69=LINE('',#834,#129);
#70=LINE('',#836,#130);
#71=LINE('',#838,#131);
#72=LINE('',#841,#132);
#73=LINE('',#842,#133);
#74=LINE('',#844,#134);
#75=LINE('',#846,#135);
#76=VECTOR('',#591,1.);
#77=VECTOR('',#592,1.);
#78=VECTOR('',#593,1.);
#79=VECTOR('',#594,1.);
#80=VECTOR('',#595,1.);
#81=VECTOR('',#596,1.);
#82=VECTOR('',#597,1.);
#83=VECTOR('',#598,1.);
#84=VECTOR('',#599,1.);
#85=VECTOR('',#600,1.);
#86=VECTOR('',#601,1.);
#87=VECTOR('',#602,1.);
#88=VECTOR('',#603,1.);
#89=VECTOR('',#604,1.);
#90=VECTOR('',#605,1.);
#91=VECTOR('',#606,1.);
#92=VECTOR('',#607,1.);
#93=VECTOR('',#608,1.);
#94=VECTOR('',#609,1.);
#95=VECTOR('',#610,1.);
#96=VECTOR('',#621,1.);
#97=VECTOR('',#622,1.);
#98=VECTOR('',#623,1.);
#99=VECTOR('',#624,1.);
#100=VECTOR('',#625,1.);
#101=VECTOR('',#626,1.);
#102=VECTOR('',#627,1.);
#103=VECTOR('',#628,1.);
#104=VECTOR('',#629,1.);
#105=VECTOR('',#630,1.);
#106=VECTOR('',#631,1.);
#107=VECTOR('',#632,1.);
#108=VECTOR('',#633,1.);
#109=VECTOR('',#634,1.);
#110=VECTOR('',#635,1.);
#111=VECTOR('',#636,1.);
#112=VECTOR('',#637,1.);
#113=VECTOR('',#638,1.);
#114=VECTOR('',#639,1.);
#115=VECTOR('',#640,1.);
#116=VECTOR('',#643,1.);
#117=VECTOR('',#644,1.);
#118=VECTOR('',#647,1.);
#119=VECTOR('',#650,1.);
#120=VECTOR('',#655,1.);
#121=VECTOR('',#656,1.);
#122=VECTOR('',#659,1.);
#123=VECTOR('',#662,1.);
#124=VECTOR('',#665,1.);
#125=VECTOR('',#668,1.);
#126=VECTOR('',#671,1.);
#127=VECTOR('',#674,1.);
#128=VECTOR('',#679,1.);
#129=VECTOR('',#680,1.);
#130=VECTOR('',#683,1.);
#131=VECTOR('',#686,1.);
#132=VECTOR('',#691,1.);
#133=VECTOR('',#692,1.);
#134=VECTOR('',#695,1.);
#135=VECTOR('',#698,1.);
#136=ORIENTED_EDGE('',*,*,#272,.F.);
#137=ORIENTED_EDGE('',*,*,#273,.F.);
#138=ORIENTED_EDGE('',*,*,#274,.F.);
#139=ORIENTED_EDGE('',*,*,#275,.F.);
#140=ORIENTED_EDGE('',*,*,#276,.F.);
#141=ORIENTED_EDGE('',*,*,#277,.T.);
#142=ORIENTED_EDGE('',*,*,#278,.T.);
#143=ORIENTED_EDGE('',*,*,#279,.T.);
#144=ORIENTED_EDGE('',*,*,#280,.T.);
#145=ORIENTED_EDGE('',*,*,#281,.F.);
#146=ORIENTED_EDGE('',*,*,#282,.F.);
#147=ORIENTED_EDGE('',*,*,#283,.T.);
#148=ORIENTED_EDGE('',*,*,#284,.F.);
#149=ORIENTED_EDGE('',*,*,#285,.T.);
#150=ORIENTED_EDGE('',*,*,#286,.T.);
#151=ORIENTED_EDGE('',*,*,#287,.F.);
#152=ORIENTED_EDGE('',*,*,#288,.F.);
#153=ORIENTED_EDGE('',*,*,#289,.T.);
#154=ORIENTED_EDGE('',*,*,#290,.T.);
#155=ORIENTED_EDGE('',*,*,#291,.F.);
#156=ORIENTED_EDGE('',*,*,#292,.F.);
#157=ORIENTED_EDGE('',*,*,#293,.T.);
#158=ORIENTED_EDGE('',*,*,#294,.T.);
#159=ORIENTED_EDGE('',*,*,#295,.F.);
#160=ORIENTED_EDGE('',*,*,#296,.T.);
#161=ORIENTED_EDGE('',*,*,#297,.T.);
#162=ORIENTED_EDGE('',*,*,#298,.T.);
#163=ORIENTED_EDGE('',*,*,#299,.T.);
#164=ORIENTED_EDGE('',*,*,#300,.F.);
#165=ORIENTED_EDGE('',*,*,#301,.T.);
#166=ORIENTED_EDGE('',*,*,#302,.T.);
#167=ORIENTED_EDGE('',*,*,#303,.F.);
#168=ORIENTED_EDGE('',*,*,#304,.F.);
#169=ORIENTED_EDGE('',*,*,#305,.T.);
#170=ORIENTED_EDGE('',*,*,#306,.F.);
#171=ORIENTED_EDGE('',*,*,#307,.T.);
#172=ORIENTED_EDGE('',*,*,#308,.T.);
#173=ORIENTED_EDGE('',*,*,#309,.F.);
#174=ORIENTED_EDGE('',*,*,#310,.F.);
#175=ORIENTED_EDGE('',*,*,#311,.F.);
#176=ORIENTED_EDGE('',*,*,#312,.T.);
#177=ORIENTED_EDGE('',*,*,#313,.T.);
#178=ORIENTED_EDGE('',*,*,#314,.F.);
#179=ORIENTED_EDGE('',*,*,#315,.F.);
#180=ORIENTED_EDGE('',*,*,#316,.F.);
#181=ORIENTED_EDGE('',*,*,#317,.T.);
#182=ORIENTED_EDGE('',*,*,#318,.T.);
#183=ORIENTED_EDGE('',*,*,#319,.F.);
#184=ORIENTED_EDGE('',*,*,#312,.F.);
#185=ORIENTED_EDGE('',*,*,#320,.F.);
#186=ORIENTED_EDGE('',*,*,#284,.T.);
#187=ORIENTED_EDGE('',*,*,#321,.T.);
#188=ORIENTED_EDGE('',*,*,#315,.T.);
#189=ORIENTED_EDGE('',*,*,#322,.F.);
#190=ORIENTED_EDGE('',*,*,#285,.F.);
#191=ORIENTED_EDGE('',*,*,#320,.T.);
#192=ORIENTED_EDGE('',*,*,#314,.T.);
#193=ORIENTED_EDGE('',*,*,#323,.F.);
#194=ORIENTED_EDGE('',*,*,#286,.F.);
#195=ORIENTED_EDGE('',*,*,#322,.T.);
#196=ORIENTED_EDGE('',*,*,#313,.F.);
#197=ORIENTED_EDGE('',*,*,#321,.F.);
#198=ORIENTED_EDGE('',*,*,#287,.T.);
#199=ORIENTED_EDGE('',*,*,#323,.T.);
#200=ORIENTED_EDGE('',*,*,#324,.T.);
#201=ORIENTED_EDGE('',*,*,#276,.T.);
#202=ORIENTED_EDGE('',*,*,#325,.F.);
#203=ORIENTED_EDGE('',*,*,#305,.F.);
#204=ORIENTED_EDGE('',*,*,#306,.T.);
#205=ORIENTED_EDGE('',*,*,#325,.T.);
#206=ORIENTED_EDGE('',*,*,#283,.F.);
#207=ORIENTED_EDGE('',*,*,#326,.F.);
#208=ORIENTED_EDGE('',*,*,#326,.T.);
#209=ORIENTED_EDGE('',*,*,#282,.T.);
#210=ORIENTED_EDGE('',*,*,#327,.F.);
#211=ORIENTED_EDGE('',*,*,#307,.F.);
#212=ORIENTED_EDGE('',*,*,#327,.T.);
#213=ORIENTED_EDGE('',*,*,#281,.T.);
#214=ORIENTED_EDGE('',*,*,#328,.F.);
#215=ORIENTED_EDGE('',*,*,#308,.F.);
#216=ORIENTED_EDGE('',*,*,#309,.T.);
#217=ORIENTED_EDGE('',*,*,#328,.T.);
#218=ORIENTED_EDGE('',*,*,#280,.F.);
#219=ORIENTED_EDGE('',*,*,#329,.F.);
#220=ORIENTED_EDGE('',*,*,#310,.T.);
#221=ORIENTED_EDGE('',*,*,#329,.T.);
#222=ORIENTED_EDGE('',*,*,#279,.F.);
#223=ORIENTED_EDGE('',*,*,#330,.F.);
#224=ORIENTED_EDGE('',*,*,#311,.T.);
#225=ORIENTED_EDGE('',*,*,#330,.T.);
#226=ORIENTED_EDGE('',*,*,#278,.F.);
#227=ORIENTED_EDGE('',*,*,#331,.F.);
#228=ORIENTED_EDGE('',*,*,#304,.T.);
#229=ORIENTED_EDGE('',*,*,#331,.T.);
#230=ORIENTED_EDGE('',*,*,#277,.F.);
#231=ORIENTED_EDGE('',*,*,#324,.F.);
#232=ORIENTED_EDGE('',*,*,#300,.T.);
#233=ORIENTED_EDGE('',*,*,#332,.T.);
#234=ORIENTED_EDGE('',*,*,#289,.F.);
#235=ORIENTED_EDGE('',*,*,#333,.F.);
#236=ORIENTED_EDGE('',*,*,#333,.T.);
#237=ORIENTED_EDGE('',*,*,#288,.T.);
#238=ORIENTED_EDGE('',*,*,#334,.F.);
#239=ORIENTED_EDGE('',*,*,#301,.F.);
#240=ORIENTED_EDGE('',*,*,#334,.T.);
#241=ORIENTED_EDGE('',*,*,#291,.T.);
#242=ORIENTED_EDGE('',*,*,#335,.F.);
#243=ORIENTED_EDGE('',*,*,#302,.F.);
#244=ORIENTED_EDGE('',*,*,#303,.T.);
#245=ORIENTED_EDGE('',*,*,#335,.T.);
#246=ORIENTED_EDGE('',*,*,#290,.F.);
#247=ORIENTED_EDGE('',*,*,#332,.F.);
#248=ORIENTED_EDGE('',*,*,#316,.T.);
#249=ORIENTED_EDGE('',*,*,#336,.T.);
#250=ORIENTED_EDGE('',*,*,#293,.F.);
#251=ORIENTED_EDGE('',*,*,#337,.F.);
#252=ORIENTED_EDGE('',*,*,#337,.T.);
#253=ORIENTED_EDGE('',*,*,#292,.T.);
#254=ORIENTED_EDGE('',*,*,#338,.F.);
#255=ORIENTED_EDGE('',*,*,#317,.F.);
#256=ORIENTED_EDGE('',*,*,#338,.T.);
#257=ORIENTED_EDGE('',*,*,#295,.T.);
#258=ORIENTED_EDGE('',*,*,#339,.F.);
#259=ORIENTED_EDGE('',*,*,#318,.F.);
#260=ORIENTED_EDGE('',*,*,#319,.T.);
#261=ORIENTED_EDGE('',*,*,#339,.T.);
#262=ORIENTED_EDGE('',*,*,#294,.F.);
#263=ORIENTED_EDGE('',*,*,#336,.F.);
#264=ORIENTED_EDGE('',*,*,#275,.T.);
#265=ORIENTED_EDGE('',*,*,#299,.F.);
#266=ORIENTED_EDGE('',*,*,#274,.T.);
#267=ORIENTED_EDGE('',*,*,#298,.F.);
#268=ORIENTED_EDGE('',*,*,#273,.T.);
#269=ORIENTED_EDGE('',*,*,#297,.F.);
#270=ORIENTED_EDGE('',*,*,#272,.T.);
#271=ORIENTED_EDGE('',*,*,#296,.F.);
#272=EDGE_CURVE('',#340,#340,#388,.T.);
#273=EDGE_CURVE('',#341,#341,#389,.T.);
#274=EDGE_CURVE('',#342,#342,#390,.T.);
#275=EDGE_CURVE('',#343,#343,#391,.T.);
#276=EDGE_CURVE('',#344,#345,#16,.T.);
#277=EDGE_CURVE('',#344,#346,#17,.T.);
#278=EDGE_CURVE('',#346,#347,#18,.T.);
#279=EDGE_CURVE('',#347,#348,#19,.T.);
#280=EDGE_CURVE('',#348,#349,#20,.T.);
#281=EDGE_CURVE('',#350,#349,#21,.T.);
#282=EDGE_CURVE('',#351,#350,#22,.T.);
#283=EDGE_CURVE('',#351,#345,#23,.T.);
#284=EDGE_CURVE('',#352,#353,#24,.T.);
#285=EDGE_CURVE('',#352,#354,#25,.T.);
#286=EDGE_CURVE('',#354,#355,#26,.T.);
#287=EDGE_CURVE('',#353,#355,#27,.T.);
#288=EDGE_CURVE('',#356,#357,#28,.T.);
#289=EDGE_CURVE('',#356,#358,#29,.T.);
#290=EDGE_CURVE('',#358,#359,#30,.T.);
#291=EDGE_CURVE('',#357,#359,#31,.T.);
#292=EDGE_CURVE('',#360,#361,#32,.T.);
#293=EDGE_CURVE('',#360,#362,#33,.T.);
#294=EDGE_CURVE('',#362,#363,#34,.T.);
#295=EDGE_CURVE('',#361,#363,#35,.T.);
#296=EDGE_CURVE('',#364,#364,#392,.T.);
#297=EDGE_CURVE('',#365,#365,#393,.T.);
#298=EDGE_CURVE('',#366,#366,#394,.T.);
#299=EDGE_CURVE('',#367,#367,#395,.T.);
#300=EDGE_CURVE('',#368,#369,#36,.T.);
#301=EDGE_CURVE('',#368,#370,#37,.T.);
#302=EDGE_CURVE('',#370,#371,#38,.T.);
#303=EDGE_CURVE('',#369,#371,#39,.T.);
#304=EDGE_CURVE('',#372,#373,#40,.T.);
#305=EDGE_CURVE('',#372,#374,#41,.T.);
#306=EDGE_CURVE('',#375,#374,#42,.T.);
#307=EDGE_CURVE('',#375,#376,#43,.T.);
#308=EDGE_CURVE('',#376,#377,#44,.T.);
#309=EDGE_CURVE('',#378,#377,#45,.T.);
#310=EDGE_CURVE('',#379,#378,#46,.T.);
#311=EDGE_CURVE('',#373,#379,#47,.T.);
#312=EDGE_CURVE('',#380,#381,#48,.T.);
#313=EDGE_CURVE('',#381,#382,#49,.T.);
#314=EDGE_CURVE('',#383,#382,#50,.T.);
#315=EDGE_CURVE('',#380,#383,#51,.T.);
#316=EDGE_CURVE('',#384,#385,#52,.T.);
#317=EDGE_CURVE('',#384,#386,#53,.T.);
#318=EDGE_CURVE('',#386,#387,#54,.T.);
#319=EDGE_CURVE('',#385,#387,#55,.T.);
#320=EDGE_CURVE('',#352,#380,#56,.T.);
#321=EDGE_CURVE('',#353,#381,#57,.T.);
#322=EDGE_CURVE('',#354,#383,#58,.T.);
#323=EDGE_CURVE('',#355,#382,#59,.T.);
#324=EDGE_CURVE('',#372,#344,#60,.T.);
#325=EDGE_CURVE('',#374,#345,#61,.T.);
#326=EDGE_CURVE('',#375,#351,#62,.T.);
#327=EDGE_CURVE('',#376,#350,#63,.T.);
#328=EDGE_CURVE('',#377,#349,#64,.T.);
#329=EDGE_CURVE('',#378,#348,#65,.T.);
#330=EDGE_CURVE('',#379,#347,#66,.T.);
#331=EDGE_CURVE('',#373,#346,#67,.T.);
#332=EDGE_CURVE('',#369,#358,#68,.T.);
#333=EDGE_CURVE('',#368,#356,#69,.T.);
#334=EDGE_CURVE('',#370,#357,#70,.T.);
#335=EDGE_CURVE('',#371,#359,#71,.T.);
#336=EDGE_CURVE('',#385,#362,#72,.T.);
#337=EDGE_CURVE('',#384,#360,#73,.T.);
#338=EDGE_CURVE('',#386,#361,#74,.T.);
#339=EDGE_CURVE('',#387,#363,#75,.T.);
#340=VERTEX_POINT('',#712);
#341=VERTEX_POINT('',#714);
#342=VERTEX_POINT('',#716);
#343=VERTEX_POINT('',#718);
#344=VERTEX_POINT('',#720);
#345=VERTEX_POINT('',#721);
#346=VERTEX_POINT('',#723);
#347=VERTEX_POINT('',#725);
#348=VERTEX_POINT('',#727);
#349=VERTEX_POINT('',#729);
#350=VERTEX_POINT('',#731);
#351=VERTEX_POINT('',#733);
#352=VERTEX_POINT('',#736);
#353=VERTEX_POINT('',#737);
#354=VERTEX_POINT('',#739);
#355=VERTEX_POINT('',#741);
#356=VERTEX_POINT('',#744);
#357=VERTEX_POINT('',#745);
#358=VERTEX_POINT('',#747);
#359=VERTEX_POINT('',#749);
#360=VERTEX_POINT('',#752);
#361=VERTEX_POINT('',#753);
#362=VERTEX_POINT('',#755);
#363=VERTEX_POINT('',#757);
#364=VERTEX_POINT('',#761);
#365=VERTEX_POINT('',#763);
#366=VERTEX_POINT('',#765);
#367=VERTEX_POINT('',#767);
#368=VERTEX_POINT('',#769);
#369=VERTEX_POINT('',#770);
#370=VERTEX_POINT('',#772);
#371=VERTEX_POINT('',#774);
#372=VERTEX_POINT('',#777);
#373=VERTEX_POINT('',#778);
#374=VERTEX_POINT('',#780);
#375=VERTEX_POINT('',#782);
#376=VERTEX_POINT('',#784);
#377=VERTEX_POINT('',#786);
#378=VERTEX_POINT('',#788);
#379=VERTEX_POINT('',#790);
#380=VERTEX_POINT('',#793);
#381=VERTEX_POINT('',#794);
#382=VERTEX_POINT('',#796);
#383=VERTEX_POINT('',#798);
#384=VERTEX_POINT('',#801);
#385=VERTEX_POINT('',#802);
#386=VERTEX_POINT('',#804);
#387=VERTEX_POINT('',#806);
#388=CIRCLE('',#546,0.0011);
#389=CIRCLE('',#547,0.0011);
#390=CIRCLE('',#548,0.0011);
#391=CIRCLE('',#549,0.0011);
#392=CIRCLE('',#551,0.0011);
#393=CIRCLE('',#552,0.0011);
#394=CIRCLE('',#553,0.0011);
#395=CIRCLE('',#554,0.0011);
#396=EDGE_LOOP('',(#136));
#397=EDGE_LOOP('',(#137));
#398=EDGE_LOOP('',(#138));
#399=EDGE_LOOP('',(#139));
#400=EDGE_LOOP('',(#140,#141,#142,#143,#144,#145,#146,#147));
#401=EDGE_LOOP('',(#148,#149,#150,#151));
#402=EDGE_LOOP('',(#152,#153,#154,#155));
#403=EDGE_LOOP('',(#156,#157,#158,#159));
#404=EDGE_LOOP('',(#160));
#405=EDGE_LOOP('',(#161));
#406=EDGE_LOOP('',(#162));
#407=EDGE_LOOP('',(#163));
#408=EDGE_LOOP('',(#164,#165,#166,#167));
#409=EDGE_LOOP('',(#168,#169,#170,#171,#172,#173,#174,#175));
#410=EDGE_LOOP('',(#176,#177,#178,#179));
#411=EDGE_LOOP('',(#180,#181,#182,#183));
#412=EDGE_LOOP('',(#184,#185,#186,#187));
#413=EDGE_LOOP('',(#188,#189,#190,#191));
#414=EDGE_LOOP('',(#192,#193,#194,#195));
#415=EDGE_LOOP('',(#196,#197,#198,#199));
#416=EDGE_LOOP('',(#200,#201,#202,#203));
#417=EDGE_LOOP('',(#204,#205,#206,#207));
#418=EDGE_LOOP('',(#208,#209,#210,#211));
#419=EDGE_LOOP('',(#212,#213,#214,#215));
#420=EDGE_LOOP('',(#216,#217,#218,#219));
#421=EDGE_LOOP('',(#220,#221,#222,#223));
#422=EDGE_LOOP('',(#224,#225,#226,#227));
#423=EDGE_LOOP('',(#228,#229,#230,#231));
#424=EDGE_LOOP('',(#232,#233,#234,#235));
#425=EDGE_LOOP('',(#236,#237,#238,#239));
#426=EDGE_LOOP('',(#240,#241,#242,#243));
#427=EDGE_LOOP('',(#244,#245,#246,#247));
#428=EDGE_LOOP('',(#248,#249,#250,#251));
#429=EDGE_LOOP('',(#252,#253,#254,#255));
#430=EDGE_LOOP('',(#256,#257,#258,#259));
#431=EDGE_LOOP('',(#260,#261,#262,#263));
#432=EDGE_LOOP('',(#264));
#433=EDGE_LOOP('',(#265));
#434=EDGE_LOOP('',(#266));
#435=EDGE_LOOP('',(#267));
#436=EDGE_LOOP('',(#268));
#437=EDGE_LOOP('',(#269));
#438=EDGE_LOOP('',(#270));
#439=EDGE_LOOP('',(#271));
#440=FACE_BOUND('',#396,.T.);
#441=FACE_BOUND('',#397,.T.);
#442=FACE_BOUND('',#398,.T.);
#443=FACE_BOUND('',#399,.T.);
#444=FACE_BOUND('',#400,.T.);
#445=FACE_BOUND('',#401,.T.);
#446=FACE_BOUND('',#402,.T.);
#447=FACE_BOUND('',#403,.T.);
#448=FACE_BOUND('',#404,.T.);
#449=FACE_BOUND('',#405,.T.);
#450=FACE_BOUND('',#406,.T.);
#451=FACE_BOUND('',#407,.T.);
#452=FACE_BOUND('',#408,.T.);
#453=FACE_BOUND('',#409,.T.);
#454=FACE_BOUND('',#410,.T.);
#455=FACE_BOUND('',#411,.T.);
#456=FACE_BOUND('',#412,.T.);
#457=FACE_BOUND('',#413,.T.);
#458=FACE_BOUND('',#414,.T.);
#459=FACE_BOUND('',#415,.T.);
#460=FACE_BOUND('',#416,.T.);
#461=FACE_BOUND('',#417,.T.);
#462=FACE_BOUND('',#418,.T.);
#463=FACE_BOUND('',#419,.T.);
#464=FACE_BOUND('',#420,.T.);
#465=FACE_BOUND('',#421,.T.);
#466=FACE_BOUND('',#422,.T.);
#467=FACE_BOUND('',#423,.T.);
#468=FACE_BOUND('',#424,.T.);
#469=FACE_BOUND('',#425,.T.);
#470=FACE_BOUND('',#426,.T.);
#471=FACE_BOUND('',#427,.T.);
#472=FACE_BOUND('',#428,.T.);
#473=FACE_BOUND('',#429,.T.);
#474=FACE_BOUND('',#430,.T.);
#475=FACE_BOUND('',#431,.T.);
#476=FACE_BOUND('',#432,.T.);
#477=FACE_BOUND('',#433,.T.);
#478=FACE_BOUND('',#434,.T.);
#479=FACE_BOUND('',#435,.T.);
#480=FACE_BOUND('',#436,.T.);
#481=FACE_BOUND('',#437,.T.);
#482=FACE_BOUND('',#438,.T.);
#483=FACE_BOUND('',#439,.T.);
#484=PLANE('',#545);
#485=PLANE('',#550);
#486=PLANE('',#555);
#487=PLANE('',#556);
#488=PLANE('',#557);
#489=PLANE('',#558);
#490=PLANE('',#559);
#491=PLANE('',#560);
#492=PLANE('',#561);
#493=PLANE('',#562);
#494=PLANE('',#563);
#495=PLANE('',#564);
#496=PLANE('',#565);
#497=PLANE('',#566);
#498=PLANE('',#567);
#499=PLANE('',#568);
#500=PLANE('',#569);
#501=PLANE('',#570);
#502=PLANE('',#571);
#503=PLANE('',#572);
#504=PLANE('',#573);
#505=PLANE('',#574);
#506=ADVANCED_FACE('',(#440,#441,#442,#443,#444,#445,#446,#447),#484,.T.);
#507=ADVANCED_FACE('',(#448,#449,#450,#451,#452,#453,#454,#455),#485,.F.);
#508=ADVANCED_FACE('',(#456),#486,.T.);
#509=ADVANCED_FACE('',(#457),#487,.F.);
#510=ADVANCED_FACE('',(#458),#488,.F.);
#511=ADVANCED_FACE('',(#459),#489,.T.);
#512=ADVANCED_FACE('',(#460),#490,.F.);
#513=ADVANCED_FACE('',(#461),#491,.T.);
#514=ADVANCED_FACE('',(#462),#492,.F.);
#515=ADVANCED_FACE('',(#463),#493,.F.);
#516=ADVANCED_FACE('',(#464),#494,.T.);
#517=ADVANCED_FACE('',(#465),#495,.T.);
#518=ADVANCED_FACE('',(#466),#496,.T.);
#519=ADVANCED_FACE('',(#467),#497,.T.);
#520=ADVANCED_FACE('',(#468),#498,.T.);
#521=ADVANCED_FACE('',(#469),#499,.F.);
#522=ADVANCED_FACE('',(#470),#500,.F.);
#523=ADVANCED_FACE('',(#471),#501,.T.);
#524=ADVANCED_FACE('',(#472),#502,.T.);
#525=ADVANCED_FACE('',(#473),#503,.F.);
#526=ADVANCED_FACE('',(#474),#504,.F.);
#527=ADVANCED_FACE('',(#475),#505,.T.);
#528=ADVANCED_FACE('',(#476,#477),#12,.F.);
#529=ADVANCED_FACE('',(#478,#479),#13,.F.);
#530=ADVANCED_FACE('',(#480,#481),#14,.F.);
#531=ADVANCED_FACE('',(#482,#483),#15,.F.);
#532=CLOSED_SHELL('',(#506,#507,#508,#509,#510,#511,#512,#513,#514,#515,
#516,#517,#518,#519,#520,#521,#522,#523,#524,#525,#526,#527,#528,#529,#530,
#531));
#533=STYLED_ITEM('',(#534),#541);
#534=PRESENTATION_STYLE_ASSIGNMENT((#535));
#535=SURFACE_STYLE_USAGE(.BOTH.,#536);
#536=SURFACE_SIDE_STYLE('',(#537));
#537=SURFACE_STYLE_FILL_AREA(#538);
#538=FILL_AREA_STYLE('',(#539));
#539=FILL_AREA_STYLE_COLOUR('',#540);
#540=COLOUR_RGB('',0.615686274509804,0.811764705882353,0.929411764705882);
#541=MANIFOLD_SOLID_BREP('Part 1',#532);
#542=SHAPE_DEFINITION_REPRESENTATION(#858,#543);
#543=SHAPE_REPRESENTATION('Part 1',(#544),#853);
#544=AXIS2_PLACEMENT_3D('',#709,#579,#580);
#545=AXIS2_PLACEMENT_3D('',#710,#581,#582);
#546=AXIS2_PLACEMENT_3D('',#711,#583,#584);
#547=AXIS2_PLACEMENT_3D('',#713,#585,#586);
#548=AXIS2_PLACEMENT_3D('',#715,#587,#588);
#549=AXIS2_PLACEMENT_3D('',#717,#589,#590);
#550=AXIS2_PLACEMENT_3D('',#759,#611,#612);
#551=AXIS2_PLACEMENT_3D('',#760,#613,#614);
#552=AXIS2_PLACEMENT_3D('',#762,#615,#616);
#553=AXIS2_PLACEMENT_3D('',#764,#617,#618);
#554=AXIS2_PLACEMENT_3D('',#766,#619,#620);
#555=AXIS2_PLACEMENT_3D('',#808,#641,#642);
#556=AXIS2_PLACEMENT_3D('',#811,#645,#646);
#557=AXIS2_PLACEMENT_3D('',#813,#648,#649);
#558=AXIS2_PLACEMENT_3D('',#815,#651,#652);
#559=AXIS2_PLACEMENT_3D('',#816,#653,#654);
#560=AXIS2_PLACEMENT_3D('',#819,#657,#658);
#561=AXIS2_PLACEMENT_3D('',#821,#660,#661);
#562=AXIS2_PLACEMENT_3D('',#823,#663,#664);
#563=AXIS2_PLACEMENT_3D('',#825,#666,#667);
#564=AXIS2_PLACEMENT_3D('',#827,#669,#670);
#565=AXIS2_PLACEMENT_3D('',#829,#672,#673);
#566=AXIS2_PLACEMENT_3D('',#831,#675,#676);
#567=AXIS2_PLACEMENT_3D('',#832,#677,#678);
#568=AXIS2_PLACEMENT_3D('',#835,#681,#682);
#569=AXIS2_PLACEMENT_3D('',#837,#684,#685);
#570=AXIS2_PLACEMENT_3D('',#839,#687,#688);
#571=AXIS2_PLACEMENT_3D('',#840,#689,#690);
#572=AXIS2_PLACEMENT_3D('',#843,#693,#694);
#573=AXIS2_PLACEMENT_3D('',#845,#696,#697);
#574=AXIS2_PLACEMENT_3D('',#847,#699,#700);
#575=AXIS2_PLACEMENT_3D('',#848,#701,#702);
#576=AXIS2_PLACEMENT_3D('',#849,#703,#704);
#577=AXIS2_PLACEMENT_3D('',#850,#705,#706);
#578=AXIS2_PLACEMENT_3D('',#851,#707,#708);
#579=DIRECTION('',(0.,0.,1.));
#580=DIRECTION('',(1.,0.,0.));
#581=DIRECTION('',(0.,0.,1.));
#582=DIRECTION('',(1.,0.,0.));
#583=DIRECTION('',(0.,0.,1.));
#584=DIRECTION('',(1.,0.,0.));
#585=DIRECTION('',(0.,0.,1.));
#586=DIRECTION('',(1.,0.,0.));
#587=DIRECTION('',(0.,0.,1.));
#588=DIRECTION('',(1.,0.,0.));
#589=DIRECTION('',(0.,0.,1.));
#590=DIRECTION('',(1.,0.,0.));
#591=DIRECTION('',(0.,-1.,0.));
#592=DIRECTION('',(1.,-4.55009436321786E-17,0.));
#593=DIRECTION('',(1.82362520470624E-16,-1.,0.));
#594=DIRECTION('',(1.,-2.28253088944317E-17,0.));
#595=DIRECTION('',(0.,-1.,0.));
#596=DIRECTION('',(1.,0.,0.));
#597=DIRECTION('',(0.,-1.,0.));
#598=DIRECTION('',(1.,-2.28253088944316E-17,0.));
#599=DIRECTION('',(1.,0.,0.));
#600=DIRECTION('',(0.,-1.,0.));
#601=DIRECTION('',(1.,0.,0.));
#602=DIRECTION('',(0.,-1.,0.));
#603=DIRECTION('',(0.,-1.,0.));
#604=DIRECTION('',(1.,0.,0.));
#605=DIRECTION('',(0.,-1.,0.));
#606=DIRECTION('',(1.,0.,0.));
#607=DIRECTION('',(-2.26761238689778E-16,-1.,0.));
#608=DIRECTION('',(1.,0.,0.));
#609=DIRECTION('',(-2.26761238689778E-16,-1.,0.));
#610=DIRECTION('',(1.,0.,0.));
#611=DIRECTION('',(0.,0.,1.));
#612=DIRECTION('',(1.,0.,0.));
#613=DIRECTION('',(0.,0.,1.));
#614=DIRECTION('',(1.,0.,0.));
#615=DIRECTION('',(0.,0.,1.));
#616=DIRECTION('',(1.,0.,0.));
#617=DIRECTION('',(0.,0.,1.));
#618=DIRECTION('',(1.,0.,0.));
#619=DIRECTION('',(0.,0.,1.));
#620=DIRECTION('',(1.,0.,0.));
#621=DIRECTION('',(1.,0.,0.));
#622=DIRECTION('',(0.,-1.,0.));
#623=DIRECTION('',(1.,0.,0.));
#624=DIRECTION('',(0.,-1.,0.));
#625=DIRECTION('',(1.,-4.55009436321786E-17,0.));
#626=DIRECTION('',(0.,-1.,0.));
#627=DIRECTION('',(1.,-2.28253088944316E-17,0.));
#628=DIRECTION('',(0.,-1.,0.));
#629=DIRECTION('',(1.,0.,0.));
#630=DIRECTION('',(0.,-1.,0.));
#631=DIRECTION('',(1.,-2.28253088944317E-17,0.));
#632=DIRECTION('',(1.82362520470624E-16,-1.,0.));
#633=DIRECTION('',(1.,0.,0.));
#634=DIRECTION('',(0.,-1.,0.));
#635=DIRECTION('',(1.,0.,0.));
#636=DIRECTION('',(0.,-1.,0.));
#637=DIRECTION('',(1.,0.,0.));
#638=DIRECTION('',(-2.26761238689778E-16,-1.,0.));
#639=DIRECTION('',(1.,0.,0.));
#640=DIRECTION('',(-2.26761238689778E-16,-1.,0.));
#641=DIRECTION('',(0.,1.,0.));
#642=DIRECTION('',(0.,0.,1.));
#643=DIRECTION('',(0.,0.,-1.));
#644=DIRECTION('',(0.,0.,-1.));
#645=DIRECTION('',(1.,0.,0.));
#646=DIRECTION('',(0.,0.,-1.));
#647=DIRECTION('',(0.,0.,-1.));
#648=DIRECTION('',(0.,1.,0.));
#649=DIRECTION('',(0.,0.,1.));
#650=DIRECTION('',(0.,0.,-1.));
#651=DIRECTION('',(1.,0.,0.));
#652=DIRECTION('',(0.,0.,-1.));
#653=DIRECTION('',(-1.,0.,0.));
#654=DIRECTION('',(0.,0.,1.));
#655=DIRECTION('',(0.,0.,1.));
#656=DIRECTION('',(0.,0.,1.));
#657=DIRECTION('',(-2.28253088944316E-17,-1.,0.));
#658=DIRECTION('',(1.,-2.28253088944316E-17,0.));
#659=DIRECTION('',(0.,0.,1.));
#660=DIRECTION('',(-1.,0.,0.));
#661=DIRECTION('',(0.,0.,1.));
#662=DIRECTION('',(0.,0.,1.));
#663=DIRECTION('',(0.,-1.,0.));
#664=DIRECTION('',(0.,0.,-1.));
#665=DIRECTION('',(0.,0.,1.));
#666=DIRECTION('',(-1.,0.,0.));
#667=DIRECTION('',(0.,0.,1.));
#668=DIRECTION('',(0.,0.,1.));
#669=DIRECTION('',(-2.28253088944317E-17,-1.,0.));
#670=DIRECTION('',(1.,-2.28253088944317E-17,0.));
#671=DIRECTION('',(0.,0.,1.));
#672=DIRECTION('',(-1.,-1.82362520470624E-16,0.));
#673=DIRECTION('',(1.82362520470624E-16,-1.,0.));
#674=DIRECTION('',(0.,0.,1.));
#675=DIRECTION('',(-4.55009436321786E-17,-1.,0.));
#676=DIRECTION('',(1.,-4.55009436321786E-17,0.));
#677=DIRECTION('',(0.,-1.,0.));
#678=DIRECTION('',(0.,0.,-1.));
#679=DIRECTION('',(0.,0.,1.));
#680=DIRECTION('',(0.,0.,1.));
#681=DIRECTION('',(-1.,0.,0.));
#682=DIRECTION('',(0.,0.,1.));
#683=DIRECTION('',(0.,0.,1.));
#684=DIRECTION('',(0.,-1.,0.));
#685=DIRECTION('',(0.,0.,-1.));
#686=DIRECTION('',(0.,0.,1.));
#687=DIRECTION('',(-1.,0.,0.));
#688=DIRECTION('',(0.,0.,1.));
#689=DIRECTION('',(0.,-1.,0.));
#690=DIRECTION('',(0.,0.,-1.));
#691=DIRECTION('',(0.,0.,1.));
#692=DIRECTION('',(0.,0.,1.));
#693=DIRECTION('',(-1.,2.26761238689778E-16,0.));
#694=DIRECTION('',(-2.26761238689778E-16,-1.,0.));
#695=DIRECTION('',(0.,0.,1.));
#696=DIRECTION('',(0.,-1.,0.));
#697=DIRECTION('',(0.,0.,-1.));
#698=DIRECTION('',(0.,0.,1.));
#699=DIRECTION('',(-1.,2.26761238689778E-16,0.));
#700=DIRECTION('',(-2.26761238689778E-16,-1.,0.));
#701=DIRECTION('',(0.,0.,1.));
#702=DIRECTION('',(1.,0.,0.));
#703=DIRECTION('',(0.,0.,1.));
#704=DIRECTION('',(1.,0.,0.));
#705=DIRECTION('',(0.,0.,1.));
#706=DIRECTION('',(1.,0.,0.));
#707=DIRECTION('',(0.,0.,1.));
#708=DIRECTION('',(1.,0.,0.));
#709=CARTESIAN_POINT('',(0.,0.,0.));
#710=CARTESIAN_POINT('',(1.38777878078145E-17,-6.93889390390723E-18,0.0075));
#711=CARTESIAN_POINT('',(0.06307,-0.01904,0.0075));
#712=CARTESIAN_POINT('',(0.06417,-0.01904,0.0075));
#713=CARTESIAN_POINT('',(0.06307,0.01904,0.0075));
#714=CARTESIAN_POINT('',(0.06417,0.01904,0.0075));
#715=CARTESIAN_POINT('',(-0.06307,0.01904,0.0075));
#716=CARTESIAN_POINT('',(-0.06197,0.01904,0.0075));
#717=CARTESIAN_POINT('',(-0.06307,-0.01904,0.0075));
#718=CARTESIAN_POINT('',(-0.06197,-0.01904,0.0075));
#719=CARTESIAN_POINT('',(-0.048805,0.009525,0.0075));
#720=CARTESIAN_POINT('',(-0.048805,0.0190375,0.0075));
#721=CARTESIAN_POINT('',(-0.048805,1.24999999999882E-5,0.0075));
#722=CARTESIAN_POINT('',(-0.01068,0.0190375,0.0075));
#723=CARTESIAN_POINT('',(0.027445,0.0190375,0.0075));
#724=CARTESIAN_POINT('',(0.027445,0.009525,0.0075));
#725=CARTESIAN_POINT('',(0.027445,1.24999999999882E-5,0.0075));
#726=CARTESIAN_POINT('',(0.032195,1.24999999999871E-5,0.0075));
#727=CARTESIAN_POINT('',(0.036945,1.24999999999865E-5,0.0075));
#728=CARTESIAN_POINT('',(0.036945,-0.0095125,0.0075));
#729=CARTESIAN_POINT('',(0.036945,-0.0190375,0.0075));
#730=CARTESIAN_POINT('',(-0.01068,-0.0190375,0.0075));
#731=CARTESIAN_POINT('',(-0.058305,-0.0190375,0.0075));
#732=CARTESIAN_POINT('',(-0.058305,-0.0095125,0.0075));
#733=CARTESIAN_POINT('',(-0.058305,1.24999999999892E-5,0.0075));
#734=CARTESIAN_POINT('',(-0.053555,1.24999999999891E-5,0.0075));
#735=CARTESIAN_POINT('',(0.,0.0248,0.0075));
#736=CARTESIAN_POINT('',(-0.06883,0.0248,0.0075));
#737=CARTESIAN_POINT('',(0.06883,0.0248,0.0075));
#738=CARTESIAN_POINT('',(-0.06883,-1.04083408558608E-17,0.0075));
#739=CARTESIAN_POINT('',(-0.06883,-0.0248,0.0075));
#740=CARTESIAN_POINT('',(0.,-0.0248,0.0075));
#741=CARTESIAN_POINT('',(0.06883,-0.0248,0.0075));
#742=CARTESIAN_POINT('',(0.06883,-1.04083408558608E-17,0.0075));
#743=CARTESIAN_POINT('',(0.05728,0.000299999999999988,0.0075));
#744=CARTESIAN_POINT('',(0.05728,0.0156,0.0075));
#745=CARTESIAN_POINT('',(0.05728,-0.015,0.0075));
#746=CARTESIAN_POINT('',(0.05878,0.0156,0.0075));
#747=CARTESIAN_POINT('',(0.06028,0.0156,0.0075));
#748=CARTESIAN_POINT('',(0.06028,0.000299999999999989,0.0075));
#749=CARTESIAN_POINT('',(0.06028,-0.015,0.0075));
#750=CARTESIAN_POINT('',(0.05878,-0.015,0.0075));
#751=CARTESIAN_POINT('',(0.04203,-9.54097911787244E-18,0.0075));
#752=CARTESIAN_POINT('',(0.04203,0.0153,0.0075));
#753=CARTESIAN_POINT('',(0.04203,-0.0153,0.0075));
#754=CARTESIAN_POINT('',(0.04353,0.0153,0.0075));
#755=CARTESIAN_POINT('',(0.04503,0.0153,0.0075));
#756=CARTESIAN_POINT('',(0.04503,-9.54097911787244E-18,0.0075));
#757=CARTESIAN_POINT('',(0.04503,-0.0153,0.0075));
#758=CARTESIAN_POINT('',(0.04353,-0.0153,0.0075));
#759=CARTESIAN_POINT('',(1.38777878078145E-17,-6.93889390390723E-18,0.));
#760=CARTESIAN_POINT('',(0.06307,-0.01904,0.));
#761=CARTESIAN_POINT('',(0.06417,-0.01904,0.));
#762=CARTESIAN_POINT('',(0.06307,0.01904,0.));
#763=CARTESIAN_POINT('',(0.06417,0.01904,0.));
#764=CARTESIAN_POINT('',(-0.06307,0.01904,0.));
#765=CARTESIAN_POINT('',(-0.06197,0.01904,0.));
#766=CARTESIAN_POINT('',(-0.06307,-0.01904,0.));
#767=CARTESIAN_POINT('',(-0.06197,-0.01904,0.));
#768=CARTESIAN_POINT('',(1.38777878078145E-17,0.0156,0.));
#769=CARTESIAN_POINT('',(0.05728,0.0156,0.));
#770=CARTESIAN_POINT('',(0.06028,0.0156,0.));
#771=CARTESIAN_POINT('',(0.05728,-6.93889390390723E-18,0.));
#772=CARTESIAN_POINT('',(0.05728,-0.015,0.));
#773=CARTESIAN_POINT('',(1.38777878078145E-17,-0.015,0.));
#774=CARTESIAN_POINT('',(0.06028,-0.015,0.));
#775=CARTESIAN_POINT('',(0.06028,-6.93889390390723E-18,0.));
#776=CARTESIAN_POINT('',(1.47440120222121E-17,0.0190375,0.));
#777=CARTESIAN_POINT('',(-0.048805,0.0190375,0.));
#778=CARTESIAN_POINT('',(0.027445,0.0190375,0.));
#779=CARTESIAN_POINT('',(-0.048805,-6.93889390390723E-18,0.));
#780=CARTESIAN_POINT('',(-0.048805,1.24999999999882E-5,0.));
#781=CARTESIAN_POINT('',(1.38780731241756E-17,1.24999999999879E-5,0.));
#782=CARTESIAN_POINT('',(-0.058305,1.24999999999892E-5,0.));
#783=CARTESIAN_POINT('',(-0.058305,-6.93889390390723E-18,0.));
#784=CARTESIAN_POINT('',(-0.058305,-0.0190375,0.));
#785=CARTESIAN_POINT('',(1.38777878078145E-17,-0.0190375,0.));
#786=CARTESIAN_POINT('',(0.036945,-0.0190375,0.));
#787=CARTESIAN_POINT('',(0.036945,-6.93889390390723E-18,0.));
#788=CARTESIAN_POINT('',(0.036945,1.24999999999865E-5,0.));
#789=CARTESIAN_POINT('',(1.38780731241756E-17,1.24999999999879E-5,0.));
#790=CARTESIAN_POINT('',(0.027445,1.24999999999882E-5,0.));
#791=CARTESIAN_POINT('',(0.027445,-1.93395452959097E-18,0.));
#792=CARTESIAN_POINT('',(0.,0.0248,0.));
#793=CARTESIAN_POINT('',(-0.06883,0.0248,0.));
#794=CARTESIAN_POINT('',(0.06883,0.0248,0.));
#795=CARTESIAN_POINT('',(0.06883,-1.04083408558608E-17,0.));
#796=CARTESIAN_POINT('',(0.06883,-0.0248,0.));
#797=CARTESIAN_POINT('',(0.,-0.0248,0.));
#798=CARTESIAN_POINT('',(-0.06883,-0.0248,0.));
#799=CARTESIAN_POINT('',(-0.06883,-1.04083408558608E-17,0.));
#800=CARTESIAN_POINT('',(1.38777878078145E-17,0.0153,0.));
#801=CARTESIAN_POINT('',(0.04203,0.0153,0.));
#802=CARTESIAN_POINT('',(0.04503,0.0153,0.));
#803=CARTESIAN_POINT('',(0.04203,-1.64696687660386E-17,0.));
#804=CARTESIAN_POINT('',(0.04203,-0.0153,0.));
#805=CARTESIAN_POINT('',(1.38777878078145E-17,-0.0153,0.));
#806=CARTESIAN_POINT('',(0.04503,-0.0153,0.));
#807=CARTESIAN_POINT('',(0.04503,-1.71499524821079E-17,0.));
#808=CARTESIAN_POINT('',(0.,0.0248,0.0075));
#809=CARTESIAN_POINT('',(-0.06883,0.0248,0.0075));
#810=CARTESIAN_POINT('',(0.06883,0.0248,0.0075));
#811=CARTESIAN_POINT('',(-0.06883,-1.04083408558608E-17,0.0075));
#812=CARTESIAN_POINT('',(-0.06883,-0.0248,0.0075));
#813=CARTESIAN_POINT('',(0.,-0.0248,0.0075));
#814=CARTESIAN_POINT('',(0.06883,-0.0248,0.0075));
#815=CARTESIAN_POINT('',(0.06883,-1.04083408558608E-17,0.0075));
#816=CARTESIAN_POINT('',(-0.048805,0.009525,-0.0025));
#817=CARTESIAN_POINT('',(-0.048805,0.0190375,-0.0025));
#818=CARTESIAN_POINT('',(-0.048805,1.24999999999882E-5,-0.0025));
#819=CARTESIAN_POINT('',(-0.053555,1.24999999999891E-5,-0.0025));
#820=CARTESIAN_POINT('',(-0.058305,1.24999999999892E-5,-0.0025));
#821=CARTESIAN_POINT('',(-0.058305,-0.0095125,-0.0025));
#822=CARTESIAN_POINT('',(-0.058305,-0.0190375,-0.0025));
#823=CARTESIAN_POINT('',(-0.01068,-0.0190375,-0.0025));
#824=CARTESIAN_POINT('',(0.036945,-0.0190375,-0.0025));
#825=CARTESIAN_POINT('',(0.036945,-0.0095125,-0.0025));
#826=CARTESIAN_POINT('',(0.036945,1.24999999999865E-5,-0.0025));
#827=CARTESIAN_POINT('',(0.032195,1.24999999999871E-5,-0.0025));
#828=CARTESIAN_POINT('',(0.027445,1.24999999999882E-5,-0.0025));
#829=CARTESIAN_POINT('',(0.027445,0.009525,-0.0025));
#830=CARTESIAN_POINT('',(0.027445,0.0190375,-0.0025));
#831=CARTESIAN_POINT('',(-0.01068,0.0190375,-0.0025));
#832=CARTESIAN_POINT('',(0.05878,0.0156,-0.0025));
#833=CARTESIAN_POINT('',(0.06028,0.0156,-0.0025));
#834=CARTESIAN_POINT('',(0.05728,0.0156,-0.0025));
#835=CARTESIAN_POINT('',(0.05728,0.000299999999999988,-0.0025));
#836=CARTESIAN_POINT('',(0.05728,-0.015,-0.0025));
#837=CARTESIAN_POINT('',(0.05878,-0.015,-0.0025));
#838=CARTESIAN_POINT('',(0.06028,-0.015,-0.0025));
#839=CARTESIAN_POINT('',(0.06028,0.000299999999999989,-0.0025));
#840=CARTESIAN_POINT('',(0.04353,0.0153,-0.0025));
#841=CARTESIAN_POINT('',(0.04503,0.0153,-0.0025));
#842=CARTESIAN_POINT('',(0.04203,0.0153,-0.0025));
#843=CARTESIAN_POINT('',(0.04203,-9.54097911787244E-18,-0.0025));
#844=CARTESIAN_POINT('',(0.04203,-0.0153,-0.0025));
#845=CARTESIAN_POINT('',(0.04353,-0.0153,-0.0025));
#846=CARTESIAN_POINT('',(0.04503,-0.0153,-0.0025));
#847=CARTESIAN_POINT('',(0.04503,-9.54097911787244E-18,-0.0025));
#848=CARTESIAN_POINT('',(-0.06307,-0.01904,-0.0175));
#849=CARTESIAN_POINT('',(-0.06307,0.01904,-0.0175));
#850=CARTESIAN_POINT('',(0.06307,0.01904,-0.0175));
#851=CARTESIAN_POINT('',(0.06307,-0.01904,-0.0175));
#852=MECHANICAL_DESIGN_GEOMETRIC_PRESENTATION_REPRESENTATION('',(#533),
#853);
#853=(
GEOMETRIC_REPRESENTATION_CONTEXT(3)
GLOBAL_UNCERTAINTY_ASSIGNED_CONTEXT((#854))
GLOBAL_UNIT_ASSIGNED_CONTEXT((#857,#856,#855))
REPRESENTATION_CONTEXT('Part 1','TOP_LEVEL_ASSEMBLY_PART')
);
#854=UNCERTAINTY_MEASURE_WITH_UNIT(LENGTH_MEASURE(1.E-8),#857,
'DISTANCE_ACCURACY_VALUE','Maximum Tolerance applied to model');
#855=(
NAMED_UNIT(*)
SI_UNIT($,.STERADIAN.)
SOLID_ANGLE_UNIT()
);
#856=(
NAMED_UNIT(*)
PLANE_ANGLE_UNIT()
SI_UNIT($,.RADIAN.)
);
#857=(
LENGTH_UNIT()
NAMED_UNIT(*)
SI_UNIT($,.METRE.)
);
#858=PRODUCT_DEFINITION_SHAPE('','',#859);
#859=PRODUCT_DEFINITION('','',#861,#860);
#860=PRODUCT_DEFINITION_CONTEXT('',#867,'design');
#861=PRODUCT_DEFINITION_FORMATION_WITH_SPECIFIED_SOURCE('','',#863,
 .NOT_KNOWN.);
#862=PRODUCT_RELATED_PRODUCT_CATEGORY('','',(#863));
#863=PRODUCT('Part 1','Part 1','Part 1',(#865));
#864=PRODUCT_CATEGORY('','');
#865=PRODUCT_CONTEXT('',#867,'mechanical');
#866=APPLICATION_PROTOCOL_DEFINITION('international standard',
'ap242_managed_model_based_3d_engineering',2020,#867);
#867=APPLICATION_CONTEXT('managed model based 3d engineering');
ENDSEC;
END-ISO-10303-21;
